<svg version="1.2" xmlns="http://www.w3.org/2000/svg" viewBox="0 0 3095 2484" width="3095" height="2484"><style>tspan{white-space:pre}.a{fill:#bd2028;stroke:#646464;stroke-dasharray:3,3}.b{fill:#fa6613;stroke:#646464;stroke-dasharray:3,3}.c{fill:#fa6613;stroke:#646464;stroke-width:1.7}.d{fill:none;stroke:#646464;stroke-width:1.7}.e{fill:#bd2028;stroke:#646464;stroke-width:1.7}.f{fill:#3bf763;stroke:#646464;stroke-width:1.7}.g{fill:#e94d51;stroke:#646464;stroke-dasharray:3,3}.h{fill:#9fd4e4;stroke:#646464;stroke-dasharray:3,3}.i{fill:#f7c750;stroke:#646464;stroke-dasharray:3,3}.j{fill:#8fb537;stroke:#646464;stroke-dasharray:3,3}.k{fill:#fefe6a;stroke:#646464;stroke-dasharray:3,3}.l{fill:#2aacc0;stroke:#646464;stroke-dasharray:3,3}.m{opacity:.96;fill:#673721;stroke:#646464;stroke-dasharray:3,3}.n{fill:#d8fcf0;stroke:#646464;stroke-dasharray:3,3}.o{fill:#d8fcf0;stroke:#646464;stroke-width:1.7}.p{fill:#f7c750;stroke:#646464;stroke-width:1.7}.q{opacity:.96;fill:#673721;stroke:#646464;stroke-width:1.7}.r{fill:#2aacc0;stroke:#646464;stroke-width:1.7}.s{fill:#fefe6a;stroke:#646464;stroke-width:1.7}.t{fill:#8fb537;stroke:#646464;stroke-width:1.7}.u{fill:#feb2e4;stroke:#646464;stroke-width:1.7}.v{fill:#9fd4e4;stroke:#646464;stroke-width:1.7}.w{fill:#e94d51;stroke:#646464;stroke-width:1.7}.x{fill:#5b86e4;stroke:#646464;stroke-width:1.7}.y{fill:#214628;stroke:#646464;stroke-width:1.7}.z{fill:#532256;stroke:#646464;stroke-width:1.7}.A{fill:#479847;stroke:#646464;stroke-width:1.7}.B{fill:#f6e1b9;stroke:#646464;stroke-width:1.7}.C{fill:#ec773e;stroke:#646464;stroke-width:1.7}.D{fill:#b8babd;stroke:#646464;stroke-width:1.7}.E{fill:#bdec5d;stroke:#646464;stroke-width:1.7}.F{fill:#3bfeaf;stroke:#646464;stroke-dasharray:3,3}.G{fill:#bdec5d;stroke:#646464;stroke-dasharray:3,3}.H{fill:#3bfeaf;stroke:#646464;stroke-width:1.7}.I{font-size: 60px;fill: #000000;font-weight: 400;font-family: "Roboto-Bold", "Roboto"}.J{fill:none;stroke:#000;stroke-width:5}.K{font-size: 24px;fill: #ffffff;font-weight: 400;font-family: "Roboto-Bold", "Roboto"}.L{font-size: 60px;fill: #ffffff;font-weight: 400;font-family: "Roboto-Bold", "Roboto"}.M{font-size: 50px;fill: #ffffff;font-weight: 400;font-family: "Roboto-Bold", "Roboto"}.N{font-size: 50px;fill: #000000;font-weight: 400;font-family: "Roboto-Bold", "Roboto"}.O{font-size: 24px;fill: #0e0e0e;font-weight: 400;font-family: "Roboto-Bold", "Roboto"}.P{font-size: 24px;fill: #020202;font-weight: 400;font-family: "Roboto-Bold", "Roboto"}.Q{font-size: 53px;fill: #020202;font-weight: 400;font-family: "Roboto-Bold", "Roboto"}.R{font-size: 37px;fill: #020202;font-weight: 400;font-family: "Roboto-Bold", "Roboto"}.S{font-size: 58px;fill: #020202;font-weight: 400;font-family: "Roboto-Bold", "Roboto"}.T{font-size: 41px;fill: #020202;font-weight: 400;font-family: "Roboto-Bold", "Roboto"}.U{font-size: 41px;fill: #ffffff;font-weight: 400;font-family: "Roboto-Bold", "Roboto"}.V{font-size: 62px;fill: #000000;font-weight: 400;font-family: "Roboto-Bold", "Roboto"}</style><path class="a" d="m483.3 263.5l1.2 13.4-3.6 11.2-11.2 1.2-5.4 5.9 4.7 13.8 15.1 2.2 2.1 10 4.4 19 5.6 25.3 17.8-3.6 21.9-5.1 10.5-14.4 6.8-9.5 7.3-22.9 25.5-12.6 18.5-9.5 2.2-1.2 1.7-0.8-3.1-4.6-3.7 6.1-2.2-4.4-1.4-3.9-2 1-0.7-2.4-1.5-4.2 2.2-0.7-2.7-8.5-3.6 1.4-50.4-8.5-27-5.1-15.6 6.6zm-77.6 26l5.6 39.2 5.8 8.3 6.6 9.5 11.2 16.3 6.6 11.4 12.6 23.9 5.4-0.3 3.6-10.2-10.9-23.6-11.2-26.1-2.7-6.3-1.7-28-1.7-26.7-18 7.3z"/><path class="b" d="m610.6 284.7l-2.2 1.1-0.6-0.7-2.2-3.4-0.2-0.4-1.6 2.6-2.2 3.6-1.7-3.4-2.1-5.1-1.7 0.8-2.3-6.2 2.2-0.9-2.5-8.1 13.8-5.3 19.3-7.2 4.5 7.5 6.9 11.4-13 6.7z"/><path class="c" d="m241 347.2c16.4 29.9 17.4 29.9 17.4 29.9l7-2 3.5-8-15.5-27.9z"/><path class="c" d="m258.4 376.6l17 35.9 63.3-27.4-3-22.5-22.4-10.9 15-20-6-18.9-68.4 26.9 15 26.4-3 9z"/><path class="c" d="m338.7 384.8l72.4 14.5 25.9 24.2 15.7-16.7 1.5-9.3-19.7-35.4-23.4-33.6-5.5-39.4-83.3 23.9 6.2 18.2-15 20.7 22.2 10.5z"/><path class="d" d="m454.2 397.8h5.7l3-9.5-24.4-56.1-3.5-54.1v-2l48.6-11.7 0.8 12.4-3.9 10.5-8.1 1.4-9 5.4 4.8 15.3 15.7 1.9 12.2 54.3 39.6-8.7 17.3-23.7 7.3-22.9 77.9-39.2-11.9-19.2-36.9 13.2-78.1-12.4-28.4 9.9-48.2 12.7-29.4 14 6 39.4 23.4 33.2z"/><path class="e" d="m462.9 388.1l33.4-22.5-12.4-54.3-15-2.5-4.5-13.3 5.5-5.9 10.7-1.5 3.8-11-1-12.5-48.4 11.7 3.2 55.7z"/><path class="c" d="m626.3 251.9l44.9-18.9 5.7 22.1-7.5 4.3 2.3 33.2-18.7 9.4-8.3-27.2-6.7-4.2z"/><path class="c" d="m670.9 233l12-4.5 9.5 20.2 19.2-5.8 64.8-14.7 6 30.9-35.2 4.3-14.9 46.9-44.2-30.7-11.2-24.7z"/><path class="c" d="m682.9 228.5l9.7 20.2 17.7-5.3-8.7-21.9z"/><path class="c" d="m761.2 191.1l8.5 6.4 6.4 30.5-65.8 15.2-8.7-21.5z"/><path class="c" d="m732.5 310.8l3.2 24.9 10.5 7.2 10.7 15.7 40.7-9.9-14.7-89.6-35.9 4.5z"/><path class="c" d="m671.7 292.3l11.4 7.5 32.7 45.6 19.9-10-3.7-25.6-43.9-30.2-11.2-24.2-7.5 4z"/><path class="c" d="m602.3 289.3l22.5 35.2c0 0 7.5 5 8.7 6 1.2 1 19.5 45.3 19.5 45.3l21.6-1.5 41.2-28.9-32.7-46.1-11.4-7.2-18.5 9.7-8.7-26.7-6.3-4.2-34.9 17.4z"/><path class="e" d="m553.2 333l31.4 16.2 40.4-24.7-22.9-35.2-41.7 21z"/><path class="e" d="m535.7 356.6l31 28.2 19.9-21.7-1.7-13.9-31.4-16.2z"/><path class="c" d="m501.3 364.6l1 7.5 19.5 51.4 47.1-17.5-2.5-21.4-30.9-27.7z"/><path class="c" d="m459.7 397.5l2.2 6 33.9 31.7 26-11.7-19.7-51.6-1-7.3-5 1-33.2 22.2z"/><path class="c" d="m437 423.5l-7 11.7-18.4-13.7-69.4-17.2-3.5-19.5 72.6 14.5z"/><path class="c" d="m275.4 412.5l18.9 35.7 34-29 14.2-15.2-3.8-18.7z"/><path class="c" d="m294.6 447.7l30.4 66.8h35.2l4.2-20.4 41.4 15.7 24.7-40.9-0.5-34-18.2-13.2-69.3-17.4-14 14.9z"/><path class="c" d="m430 468.6l39.2 11.2 26.6-44.6-33.9-31.7-2.5-6-5.2 0.5-1.5 8.8-15.7 16.4-6.5 11.7z"/><path class="c" d="m469.4 479.8l20.2 24 22.7 0.7 7.5 23 11 9.7 49.1-15-7.7-22.2-11-24.2-38.9-53.1-26.7 12.5z"/><path class="c" d="m561.2 475.8l33.4-21.9-0.3-5.5-25.4-42.4c0 0-44.9 16.7-46.1 17.2-1.3 0.5 19.7 26.7 19.7 26.7z"/><path class="e" d="m653 375.6l-11.5 23.4-20.5-0.2-21.9-28.2-12.7-7.7-1.5-13.7 39.9-24.5 9.2 6z"/><path class="c" d="m594.8 448.7l26.5-24.2-0.3-26.2-22.2-27.7-12.2-7.7-19.7 21.9 1.5 21.2z"/><path class="c" d="m621.3 424l11.5 5 11.7-4-2.8-25.7-20.7-0.8z"/><path class="c" d="m644.7 424.7l35.9 1-5.5-51.1-22.1 1.2-11.5 23.2z"/><path class="c" d="m680.6 425.2c0 0 22.7 42.2 23.7 42.4 1 0.3 22.2-15.2 22.2-15.2l18.5-19.9-4.5-26.2 21.9-18.2-5.5-29.7-10.7-15.2-10.7-7.5-19.5 9.5-41.1 29.1z"/><path class="c" d="m762.2 387.8l29.4 22.2 25.4 25.4 1.3 33.5 3 7.9 12.2 13.3 30.9-35.2-26.2-80.1-40.6-26.1-40.4 9.9z"/><path class="c" d="m745 432.2l55.3 39.7 18-3.5-1.3-33-25.4-25.6-29.2-21.7-21.9 18.4z"/><path class="c" d="m833.3 490.1l-7.5 12.2-24.5-1-1.2-29.7 18.2-3.2 3 8.4z"/><path class="c" d="m801.3 501.3l-4.7 5.5-51.9-3.3-17.9-51.3 18.4-20 55.1 39.7z"/><path class="c" d="m704.1 467.6l-0.3 32.4 6.5 24 22-1 12.2-19.2-18-51.4z"/><path class="c" d="m632.5 429l13.7 84.8 38.7-5.8 18.7-7.7 0.5-32.9-23.5-41.4-35.9-1.3z"/><path class="c" d="m594.6 454.4l6.7 5.2 15.5 34.2 3 23.2 26.4-3-13.7-85-11-5.3-26.7 25z"/><path class="c" d="m580.1 522.2l9 10.3 5.7 12.2 9.3-7.8-8.5-18.7-7.5-13.9 0.5-4.8 6.5-8.7 10.2 3 9 11 5.7 12.4-3.2-23.4-15.2-34.2-7.3-5.4-33.1 21.6 11.2 24.5z"/><path class="c" d="m604.1 536.4l15.4-19.7-5.2-11.9-9.2-11-10-3.2-6.5 8.7-0.2 5.2 7.4 14.2z"/><path class="c" d="m489.6 503.8l-8.7 14.2c0 0 11 15.7 11.7 16 0.7 0.2 27.2-6.5 27.2-6.5l-7.2-23z"/><path class="c" d="m405.6 509.8l16.9 41.1 25 11 45.4-27.7-12.3-16.2 8.8-14.2-20.2-24.2-38.7-11z"/><path class="c" d="m359.9 514.5l11.5 34.9-8 36.4 24.7 37.2 25.9-43.7 8.3-28.6-17.2-41.2-40.9-15.4z"/><path class="c" d="m363.7 585.8l-17.2 5-10.3-39.9-11.4-36.6 35.1 0.2 11.5 34.7z"/><path class="c" d="m346.7 590.6l12.5 51.8 9.2 11.5 20.2-24.2-0.5-7.2-24.7-36.4z"/><path class="c" d="m388.4 629l33.1 24.9 17 6.2 15.2-4.2-1.5-21.9-17.5-31.2-20.2-25.2-0.2 1.5-25.7 43.6z"/><path class="c" d="m452.5 634.5l35.9-13.8-10.8-40.9-39.1 9-6.5-12 16.2-5.7-1-9.2-25.2-11.2-7.5 27.6 20.7 25z"/><path class="c" d="m477.6 579.8l62.1-11.2-8.7-31.7-11.7-9.7-26.4 6.5-45.7 28.2 1.3 9.2-16.2 5.7 6.2 11.8z"/><path class="c" d="m539.7 568.6l14.2 12.2 29.7 39.4 32.4-12.2v-5.5l-21.2-57.8-5.7-12.5-9.2-10-49.1 15.2z"/><path class="c" d="m616 602.5l41.7-24.4-15-63.6-23.2 2.5-15.4 18.9 0.2 1-9.7 7.5 11.7 31.7z"/><path class="c" d="m684.4 508.3l7 29.6 13.2-0.7 6-13.5-7-23.4z"/><path class="c" d="m732.8 523.2l1 8 57.1 16.7 41.9-20.4-7-25-24.5-1.2-5 5.5-52.1-3.3z"/><path class="f" d="m790.6 547.7l-16.4 46.6 12.7 17.2 49.3-22.7-3.2-61.6z"/><path class="c" d="m773.9 594.1l-7.2 1.7-21.2 31.9c0 0-11.2-14.4-10.7-15.4 0.4-1-3.3-15.5-3.3-15.5l-26.9-16.7 29.2-48.9 56.8 16.7z"/><path class="c" d="m657.9 578.3l9.3 9.8 2.5 20.4-6.8 23.2 14.7 26.4 19.2-1.2 12.3-36.2 25.9-8.2-3.7-15.7-26.7-17 29.4-48.6-1-8-22.4 0.5-6 13.2-13.5 0.8-6.5-29.7-42.1 6.5z"/><path class="c" d="m616.3 607.8l9 8.4 12.7 26.2 24.9-10.7 6.8-23.2-2.5-20.4-9.8-10-40.9 24.2z"/><path class="c" d="m488.1 620.7l19 7.5 5.5 24.2 41.3-26.2 24.7 2 5-7.7-14.9-20.5-15-19.4-14.2-12-61.9 11.5 11.5 41.1z"/><path class="c" d="m438.7 659.9l0.3 22.9 43.4-13.7 11.7-10.2 18.5-6.5-5.5-24.2-18.7-7.5-36.2 13.8 1.2 21.4z"/><path class="c" d="m439 682.8l-8 3.3-26.9-8.3 17.4-23.9 17.5 6.5z"/><path class="c" d="m368.4 654.2l0.3 37.1 3.9 12.7h15.5l0.5-23.2 15.7-3 17.2-23.9-32.6-24.7z"/><path class="c" d="m387.9 703.8l2.5 6 31.6 32.6 5-6.4-0.5-6-8.7-15 14.2-9.7-1-19.5-26.7-7.7-15.7 2.7z"/><path class="c" d="m432 705.3l23.2 4 3.2 13.4 38.7-0.2v-31.2l-14.7-22.2-43.4 13.5-8.2 3.7z"/><path class="c" d="m512.8 652.2l-0.2 41.6-16-2.7-14.2-22.2 11.9-10z"/><path class="f" d="m512.6 693.8l48.8 5 26.5-35.2-9.5-35.6-24.7-2-41.1 26.7z"/><path class="f" d="m587.6 663.4l35.7 20.7 24.2-12.7 5.5-35.7-14.8 6.7-12.7-25.9-9-8.2-32.6 11.7-5.3 9z"/><path class="f" d="m647.5 671.1l11.2 10 4 10 14.7-33.2-14.5-26.2-9.9 4.5z"/><path class="f" d="m697.3 656.9l3 14.5 23 6.9h9.7l15.5-15.9-3-34.7-11-14.7-25.7 7.7z"/><path class="f" d="m748.7 662.4l38.2 9.5 14.9-19-2.7-18.7 36.4-10 9.5-21.2-8.8-14.2-49.6 23-12.7-17.7-7.2 1.7-21.2 31.4z"/><path class="f" d="m836 624.2l33.2 74.8-13 24.7-14-6.7-26.9 16.2-10.5-23.2h-60.6l-11.2-31.9 15.7-16 38.2 9.8 14.9-19.2-2.7-18.5z"/><path class="f" d="m662.4 691.1l4 10.4 22.7 8.5 34.7-31.7-23.5-6.9-3.2-14.3-20 1.3z"/><path class="f" d="m623.3 683.8l-0.8 22 35.2 7.5 9-12-4.5-11-3.5-9.5-11-9.4z"/><path class="f" d="m561.4 698.8l61.1 7 0.5-22-35.1-20.2z"/><path class="f" d="m496.8 722.5l4.3 12.2 43.6-16.5 2.3-20.9-34.4-3.2-16-3z"/><path class="c" d="m501.1 734.7l-4 14.5-33.4 10.7-2.8-6.7-6-1-0.7 4.4-13.5 3.8-18.9-18 5.2-6.7-0.5-5.7-8.5-15.2 14.3-9.8 22.9 4.3 3.5 13.7 37.9-0.5z"/><path class="f" d="m497.6 748.9l47.1 16.7 13.2-2.5 6.5-9.4 15.7 7.4 35.9-56.1-69.3-7.7-1.7 20.9-44.4 16.8z"/><path class="f" d="m657.9 713.5l0.5 8.7-3 12.5-2.4 5.5-27.7 27.4-9.8-6-15.9 13.5-19.5-14.2 35.7-55.9 7.5 0.8z"/><path class="f" d="m658.4 722l30 12.5-3 61.3 23.2-14.7 1.5-31.9 18.9-21.7 0.8-13.5 14.7-3.7-11.5-32.2-10 0.5-33.6 31.7-23-8.8-8.7 11.8z"/><path class="f" d="m729 727.5l26.4 15.9 29.7-7.9 11.5 13.9 18.7-15.9-11-23.5-59.6-0.2-14.9 4.2z"/><path class="f" d="m869.4 699l35.4-10.4 9 52.6-2.2 12.2-17.2 7.2-36.5 3.5-9.7-17.9 8-22.2z"/><path class="f" d="m904.8 688.6l24 1 50.1 14.4-5.5 20.5 21.5 29.2-42.7 6.9-20.9-19.4-17.5-0.3z"/><path class="f" d="m994.9 753.7l15.2 15.2-20.7 31.1-34.9 8.5-10.3-19.7 7.8-28.2z"/><path class="f" d="m944.5 788.6l-20 4-4.5-26.7-8.4-12.7 2.2-12h17.7l20.5 19.4z"/><path class="f" d="m954.5 808.3l-13.5 67.6-17 3.2-0.5-25.7-10.4-6.7-44.4 11.4v-9.7l25.2-23.7 0.2-63.8 17.7-7.5 8.2 13 4.5 25.9 20-3.5z"/><path class="f" d="m868.9 848.4l-11.5-14.2 4.3-23.2 15.2 0.3-0.8-18.5-18.9-14.7 0.5-14 36.7-3.5-0.5 63.9z"/><path class="f" d="m796.3 749.4l3.5 27.2 35 16.2 22.4-15 0.7-13.7-9.9-18.2 8.2-22.2-14-6.7-26.4 16z"/><path class="f" d="m755.2 743.4l7.2 13.7-16.4 23.2 26.2 15.8 13.9-11 13.7-8.7-3.5-27.2-11.2-13.5z"/><path class="f" d="m709.1 780.8l36.9-0.2 16.4-23.7-7-13.7-26.4-15.7-18.9 21.7z"/><path class="f" d="m669.9 727l-7.7 30.9 16.2 38.9 7-0.2 2.7-62.1z"/><path class="f" d="m599.1 774.9l8.5 14.7 4.7 5 3 10.7 24.4-25.7 38.2 17-16-38.5 8-31.1-11.7-5-2.5 12.2-2.7 6-27.7 27.4-10-6z"/><path class="f" d="m615.3 804.8l-0.5 5.2-30.2 47.6 17.5 13.5-7.3 19.7-33.1-11.2-1 9.5-6-1-29.2-34.2 1-21.2 26.5-19.7 52.8-26.7 1.3 2.8 5.7 6z"/><path class="f" d="m602.1 871.1l51.4-32.7-38.5-32.9v4.8l-30.1 47.3z"/><path class="f" d="m653.2 838.7l24.2-1.5 4-5 0.2-35.4-3.5-0.2-38.1-17-24.7 25.9 7 6.3z"/><path class="f" d="m681.6 832.2l20.7-3.2 62.4-4 29.9-27.5-8.7-12.4-13.5 11-25.9-15.5-37.9 0.2-23.5 15.3v0.7l-3.5-0.2z"/><path class="f" d="m794.4 797.3l9.7 8.5 2.5 13.4 46.1 9.5 5 5.8 4-24 15.2 0.8-0.8-18.7-18.9-14.8-22.4 15-35-16.4-13.7 8.9z"/><path class="f" d="m923.8 879.1l-7 24.2 4 12.2 47.9 10.7 1.5-19.7 54.6-23.9 42.4 0.7 11.7-11.2-23.7-39.6-32.4-53.7-12.7-9.9-20.5 31.1-35.1 8.5-13.3 67.1z"/><path class="f" d="m868.5 858.1l-0.5 30.9 48.8 14.4 7.2-24.9-0.8-25.1-9.9-7z"/><path class="f" d="m867.7 888.7l-30.6-17.2 1.5-33.1 18.9-4.2 11.5 14.4-0.3 9.8z"/><path class="f" d="m822.2 822.8l-1.7 47.5 17.1 1.2 0.8-33.1 18.9-4.4-4.7-5.5z"/><path class="f" d="m806.5 819l-20.4 27.2 12.7 33.3 22.2-9 1.2-48z"/><path class="f" d="m798.8 879.8l7.5 35.8-18.9 7.4-25.4-31.8-57.5-8.7-2.2-53.3 62.4-4.2 30.1-27.4 9.5 8.3 2.2 13.1-20.4 27.2z"/><path class="f" d="m677.4 837.5l-2.2 37.8 23.6 12.2 5.5-4.8-2.3-53.7-20.4 3.2z"/><path class="f" d="m594.8 890.7l38.8 11.4 27.4-37.8 14.7 3.5 1.7-30.6-24.6 1.5-50.8 32.6z"/><path class="f" d="m633.8 902.4l21 11.2 19.1-6.5 1-31.8 0.5-7.5-14.4-3.7z"/><path class="f" d="m560.9 889.2l17.5 18.7-27.2 24.4 5.8 15.1 9.7 4.8 10.7-0.5 15.6-7.8 11.5 2.3 10.9 16.9 51.8-33.3 7-22.7-19.4 6.5-21.2-11.5-38.8-11.4-33.4-11.2z"/><path class="f" d="m615.7 963.1l1.2 10.7 22.4 19.9 18.7-0.7 7.9-30.6 1.3-32.6z"/><path class="f" d="m665.7 962.1l31.6 18.7 46-24.7-9.7-9.4-59.2-39.8-7.2 23.6z"/><path class="f" d="m697.3 980.8l-7.7 8.4 10.2 16 16.7 10.7 36.3-20.2-0.5-5.5 26.9 3.3 8.4 16.9 27.1-1.3 16.5-15.4-4.3-35.3-8.4-22.7-12.2-20.4-18.9 7.7-25.7-32.1-57.4-8.7-5.8 5.5-23.6-12.4-1 31.6 7 4.2 53 36.1 9.2 8.7z"/><path class="f" d="m716.5 1015.9l1 11.9-6.3 2.5-17.4-4.2-14.9-8.3-21.2-24.8 8.2-30.6 31.4 18.1-8 9 10.5 15.4z"/><path class="f" d="m718 1027.8l37.3-11.7 6.4 5 7.5 19.4 19.2-0.3 26.6-16.1-0.8-15-26.8 1.3-8.5-16.9-26.9-3.3 0.8 5.5-36.3 19.9z"/><path class="f" d="m815 1023.8l9.2 9 30.6-3 13.9 23.6 48.3-14.2 0.8-13.1 12.4 1.2 7.2-14.4-2.5-23.2-14.4-2.5-23.6 7.8-19-30.9-51-5.7 4 35.3-16.9 16.2z"/><path class="f" d="m877.7 964.4l27.9-18.5-0.3-25.1 15.4-5.2-4.2-12.2-48.5-14.4-30.9-17.5-16.6-1.2-21.7 9.5 7.5 36 12.9 20.7 7.7 22.1z"/><path class="f" d="m906.1 945.9l18.1 14.5 10.5 12.2v17.1l-14.2-2.7-23.9 8-18.9-30.9z"/><path class="f" d="m934.2 972.6l55.7-15.5-21.4-30.8-47.8-10.7-15.4 5.2 0.5 25.1 19.2 15.2z"/><path class="f" d="m989.7 957.1l11.4 11.5 16.9 25.9 13.7-29.6 25.2 6.2 10.2-0.8 5.7-6.7-0.3-7.7-8.4-8 12.4-34.6-9.4-29.8-42.3-1-54.8 24.4-1.2 19.4z"/><path class="f" d="m1079.5 872.3h13.2l33.3-8 7.2 10.5 12.7 20.9-13.4 37.1-29.6 14.9-14-9.2-16.1 16.9-8.7-7.5 12.4-34.8-9.2-29.6z"/><path class="f" d="m937.4 1012.9l68.2-0.3 12.7-17.6-17.2-26.9-11.7-11-55 15.7 0.3 16.7z"/><path class="f" d="m930.4 1027.1l39.4 12.6 9.7 23.9 23.6 13 18.7-50.5 28.8 6.2 5.5-8.7-37.8-28.6-12.7 17.9h-68.4z"/><path class="g" d="m1343.6 1074.3l7-9.7 3.2-4.7 3.1-6.3 1.8-7.2-0.7-10.2-2.1-5.6-4.6-6.3-2.8-2.1 1.8-3 7.7-3.3h11.7l7.6 7 5.8 14.7 2.6 3.5 6 3-1.3 6 0.4 5.4 0.7 3 2.3 3.3-8.6 6.9-16-3.2-5.8 22.1-11.2 0.5z"/><path class="h" d="m1419.8 1022.1l0.4 4.1-1 1.8-0.8 1.2-3.8-2-4.1-1.7-5-1.4-6.9-1.2-9-2.4-4.7-1.2-6-3.2-4-1.4-2.9 3.2 5.3 4.8 2.2 5.9 2.6 6.6 2 3.5 1.4 2 2.1 1.2 4.2 2.4-1 3.8-0.4 3.9 0.6 4.4 0.8 2.2 1.8 3 8.3-6.2 6.2-4.9 7.9 5.3 3 1.8 10.3-3.8 7.4-2.9 0.9-15.9 0.2-15.9z"/><path class="i" d="m1336.3 1013.8l5.6 3 4.9 2.6 2.7 1.3 0.2-1.5 5.1-1.9 3.9-1.5h6.8l2.2-0.3 2 0.3 2.7 2.2 1.2-2.2 1.2-0.7-2.4-2 0.2-1.7 3.6-1.7 4.7-7.1-12.4-7.5-13.9 3.2-10.7 9z"/><path class="j" d="m1490 899.4l2.4 3.8 3.1 4.1-3.1 3.8 1.8 3.8 2.7 2.1 2.1 4.8-4.2 4.8-3.4 0.7-1.4 1.4-4.1 4.1-10.3-8.9 0.7-6.6z"/><path class="k" d="m1500.7 884.8l24.3 1.5 12.9 15.9 14.6 17.2-2.9 9.8-7.1 11.3-7.2 11.6-18.6 2.4-16.5 1.7-9.8-15.5-7.8 10.2-2.9-2.3 7.1-14.2-1.1-1.3 1.9-2 2.6-2.6 1.4-1 3.4-1.1 2.9-3.4 1.1-1.4-1.6-3.3-0.3-1.3-2.3-1.4-2.4-4.3 3.1-4.1-2.9-3.8-2.7-4.2z"/><path class="l" d="m1456.8 873.9l7.1-1.5 9 2.5 4.3-2.2 11.2-19.2 13.9-2.2 25.6-22.4 3.1 10-8.5 17-7.3 9.2-10.9 15.1-14.4 19.3-14.1 18-12.9-0.3 11.9-20.7-8.5-18z"/><path class="l" d="m1411.7 996.6l0.5 17.4 4 4.2 3.8 3.9v4l-1.7 2.9-4.3-2.2-3.8-1.4-3.1-1-4.8-0.9-3.3-0.5-2.6-0.9-2.4-0.5-3.8-0.9-2.7-0.6-2.6-0.9-2.9-1.6-2.6-1.2-2.6-1.2-1.6-0.3-1.7-1-1-1.1v-1.4l3.1-1.2 0.7-1 2.4-3.3 2.2-3.2 7.8 5 5.6-8.5 1.9-2.7z"/><path class="m" d="m1457 874.2l3.2-1 2.9-0.8h1l3.7 1.3 5.1 0.9 2.9-0.7 1.7-1.2 1.4-2.9 3-4.9 2.9-5.4 2.7-4.3 0.9-1.7 3.7-0.5 5.1-0.8 5.4-0.9 4.3-4.4 5.9-4.9 6.1-5.3 4.8-4.2 4.4-3.9-1-3.1-15.1-10.7-4.6-3-11.2 7.1-15.1 9.5-15.8-5.6-10.7 12.7-17 19.7 10.9 10.9z"/><path class="n" d="m1336 1013.7l2.6 1.4 3.4 1.9 3.1 1.7 4.2 2-0.7 1.2 1.2 1.3 1.5 1.2 1.7 2.5 2.3 3 1.4 2.5 0.8 2.5 0.4 3 0.3 3.3 0.5 4.7-0.7 2.5-0.7 3.5-1 2.6-1.2 2.9-1.5 2.7-1.8 2.6-3.2 4.7-3.8 5-1.2 1.9-6.2-10.2-13.3-21.7-23-0.5-16.7-14.8-23.1 0.7-2-13.9 11.3-7.6-9.1-21.9 0.5-4.4 14.6-4.9 13.8 7.6 17 9.5 23.1 26.8z"/><path class="o" d="m1134.2 931.3l12.5-36.4 24.4 0.8 6.7 15.4-1 28.4h-34.1z"/><path class="o" d="m1176.5 939.2l37.6 25.9 28.1-9.7 5.2-15.2-40.8-44-15.6 1.5-13.2 13.9z"/><path class="o" d="m1247.2 940.2l15.9-4.2 10.5-21.4-15.2-32.4-35.8-34.1-16 48.1z"/><path class="p" d="m1258.6 882l-0.2-13.2 26.9 4.7 17.1-25.4-20.1-16.9-39.6 0.5-9.4-11.7-11.2 5.5 0.2 22.4z"/><path class="p" d="m1282.3 831l-1.5-28.1-39.8 8.9-7.7 8 9.2 11.7z"/><path class="p" d="m1302.2 848.1l39.5-1.2 10-16.9-1.5-22.4-11.7-36.3-23.6-5.3-34.1 37.1 1.2 27.9z"/><path class="p" d="m1351.7 830.2l16.7-4.9-1-66.7-28.9 12.7 12 36.5z"/><path class="q" d="m1368.4 811.8l29.3-8.2 13-15.7-11.5-23.9-31.8-5.7z"/><path class="q" d="m1410.2 787.9l16.9 0.3 11.7-11.5 14.4 6.8 7.7 8.2 24.4-18.7-9.9-30.4-26.7 2.8-16.4-13.2-13.9 3.5-0.8 15.7-18.6 12.9z"/><path class="q" d="m1461.4 791.7l4.3 31.3 15.6 5.2 27.2-16.9-7.8-20.9-15.4-17.9z"/><path class="q" d="m1397.5 803.6l26.1 26.1-0.5 16.2-7.9 8.5 9.2 5.4 13.1-4.9 28.2-32.1-4.5-30.9-8-8.4-14.4-6.8-11.5 11.7-17.4-0.5z"/><path class="q" d="m1341.7 846.9l16.5 17.4 23.4 3 22.4-20.4 11.2 7.2 7.9-7.9 0.3-17-25.7-25.6-29.6 8.5 0.3 13.4-16.7 4.7z"/><path class="d" d="m1437.8 855.1l18.7 18.7 9.9 5 8.2 17.9-11.7 20.6h13.2l46.3-61.7 8.7-16.9-4.5-13.4-18.4-14.2-26.9 17.4-15.9-5.7z"/><path class="r" d="m1456.5 873.8l-15 9.9-3.7 9 14.2 23.9 10.7 1.2 12.2-20.9-8.5-18.1z"/><path class="r" d="m1438 892.4l-42 41.3-9.7-7.7-4.7-58.7 22.6-20.1 11.7 6.9 8.5 5.5 13.4-4.5 19.2 18.7-15 9.7z"/><path class="p" d="m1273.6 914.8l44.5-14.9 32.9-18.9 7.4-16.7-16.7-17.1-39.3 0.9-17.4 25.7-26.6-4.7 0.5 13.6z"/><path class="p" d="m1318.6 899.7l10.7 53h6.5l50.5-26.9-5-58.7-23.1-2.8-7.2 17.2z"/><path class="p" d="m1262.9 936l12.2 19.1 16.9-1.2 20.6 22.4 12-12.2 5-11.7-11-52.2-44.8 14.6z"/><path class="p" d="m1242.5 955.4l19.4 24.6 14.2-4.5-1-20.6-12.2-18.9-15.5 4.2z"/><path class="o" d="m1134.7 931.3l-31.6 16.4-13.9-9.7-15.9 17.9-1 9.4 14.4 2.8 11.2 5.7-1.5 6 27.9 9.4 17.9-16.9 0.2-32.8z"/><path class="o" d="m1141.7 972.1l23.1 8.2 15.7 17.4 17.2 0.7 17.9-17.1-1.2-16.5-37.9-25.3h-34.1z"/><path class="o" d="m1125 989l19.7 37.6h13.9l17.2-17.5 4.7-11.7-15.9-17.1-22.7-8.2z"/><path class="o" d="m1175.8 1008.9l18.9 14.2 10.2 14.4 22.9-1 33.3-8.7-2-14.4-14.6-14.5-28.9-17.6-17.9 17.4-17.4-0.8z"/><path class="o" d="m1244.5 999.2l16.4-14.2 0.7-5-19.4-24.4-27.6 9.2 1 16.2z"/><path class="o" d="m1259.4 1013.6l10.9-7.4-8.7-21.7-17.1 14.7z"/><path class="p" d="m1276.1 975.1l31.1 16.6 5.4-15.2-20.6-22.6-17.4 1z"/><path class="p" d="m1307.2 992l23.1 27.1 24.9-20.9-17.9-17.2-1.5-6.9-11.2-9.7-11.7 11.9z"/><path class="p" d="m1355.4 998.4l12.7-3.2 2.5-23.1-7.7-7.5-11.7 4.5-15.9-16.2h-5.7l-5 11.7 11.4 9.7 1.8 7.2z"/><path class="p" d="m1368.4 995l20.1 12.6 7.5-10.4-4.5-19.7-8.7-9.9-12.2 4.5z"/><path class="p" d="m1383.1 967.6l12.9-33.6-10-8.2-50.7 26.9 15.9 15.9 12.2-3.8 7.5 7.5z"/><path class="r" d="m1396.5 996.4l15.9 0.3 21.7-4.2-2-62.5 20.1-13.7-14.2-22.9h-0.7l-41.3 40.6-12.7 34.1 8.2 9.4z"/><path class="s" d="m1500.5 885l24.4 1.5 27.6 33.1 43.3-1.8 9.2-5.2-13.2-30.4-36.1-0.7-33.3-25.4z"/><path class="t" d="m1549.5 930l23.2 22.9 14.1 3.7 21.7-13.6-13-25.2-43 1.5z"/><path class="t" d="m1586.6 956.6l4.5 31.9-16 0.2-15.9-9.2c0 0-1.5-7.9-0.2-6.9 1.2 1 13.4-19.9 13.4-19.9z"/><path class="t" d="m1535.3 952.2l11.5 8.2 3.2 7.9 6.7 5 3-1 12.7-19.4-23.4-23.1z"/><path class="t" d="m1518.4 954.9l13 17.7 18.4-4-3-8.7-11.5-7.7z"/><path class="t" d="m1433.6 992.2l10.2 4.2 18.6-41.3-4.2-15.4 16.9-16.2 1-6.2c0 0-11.9 0.3-12.9 0.3-1 0-11.5-1.3-11.5-1.3l-19.6 14z"/><path class="t" d="m1462.4 955.1l23.9 17 14.2-15.5-13.7-22.4-12.2-10.4-16.4 16.2z"/><path class="d" d="m1476.1 917.8l-1 5.7 11.7 10.7-7.2 14.5 2.7 2.5 8.2-10.7 10 15.9 34.3-4.2 14.5-22.2 3.2-10.7-27.6-33.1-24.2-1.2z"/><path class="t" d="m1486.1 971.8l5.9 18.9 14.2-1.5 10.7 22.9 9 5.7 33.3-38-0.5-7.2-2.2 1-6.5-5-19.4 4.2-13.4-18.4-16.9 2z"/><path class="u" d="m1526.6 1017.6l23.9-0.7 24.4-8.3 6.5 0.3 2.5 10.9 11.9-0.2-4.5-31.1-16.2 0.2-15.9-9.2z"/><path class="u" d="m1596 1019.6l5.3 18.2-58.3 2.2 7.8-23.1 24.3-8.3 6.3 0.3 2.5 10.9z"/><path class="u" d="m1516.4 1012.6l-8.9 7 10.7 15.2 8.7-0.8-1-16.2z"/><path class="v" d="m1443.8 996.4l-5.8 23.2-1.2 31.3 10.9 6 18 28.1 36-2.5 4.8-17.6-1.5-14 14.7-13.9 7.9-0.5 4.5 6 10.9-2.5 7.8-22.9-24.9 0.5 0.7 16.4-8.4 0.8-10.7-15.2 9.7-7.2-11-23.2-14.4 1.5-5.7-18.9-23.7-16.7z"/><path class="v" d="m1411.9 996.4l0.3 17.5 7.9 8.4 18.4-3.2 5.3-22.4-10-4.5z"/><path class="u" d="m1506.5 1064.9l18.6-1.5 7.2-20.9-4.9-6-7.5 0.5-14.9 13.9z"/><path class="u" d="m1543.3 1040l1.2 10.7 15.2 7.7-0.2 24.9 7.7 8.9 9.2-0.2 41-19.2-16.4-34.8z"/><path class="u" d="m1525.1 1063.6l8.7 18.2 25.7 1.2 0.2-24.6-15.2-7.7-1.2-10.7-11 2.5z"/><path class="u" d="m1501.5 1082.3l23.6 11.9 8.5-12.4-8.5-18.4-18.6 1.5z"/><path class="u" d="m1576.4 1092.2l-1.3 20 23.9 6.2 25.9-0.5-1.7-37.1-5.3-8.2z"/><path class="u" d="m1575.1 1112.2l-35-2.5-15.2-12.2 0.5-3.3 8.7-12.4 25.4 1.2 7.9 9.5 9-0.5z"/><path class="d" d="m1261.4 1028.1l22.9-1 16.4 14.6 23.6 1 27.9 45.6 11.7-0.8 5.7-21.9 15.7 3 22.9-18.2 10.7 7.3 18.1-6.8 1-31.8-17.9 3.2-7.9-8.4-0.5-17.2-15.7-0.3-7.2 11.2-20.4-12.6-13.5 3.4-24.6 20.4-23.9-27.3-30.1-16.4-14.4 4.9-0.5 4.8 9.7 21.6-11.7 7.7z"/><path class="o" d="m1158.6 1026.8v6l14.9 24.6h29.7l3.2-7.5-1.5-12.6-10-14-18.9-13.9z"/><path class="o" d="m1144.7 1026.3l-4.7 12.4 19.4 42.6 11.7-9.2 2.2-14.9-14.7-24.7-0.2-5.4z"/><path class="o" d="m1202.9 1056.9l11 7.5 1.4 11.2 11.7 8.2-4.9 9.9-17.7 8-33.1-29.9 2.2-14.4z"/><path class="o" d="m1203.7 1056.9l29.3 2.3-6 11.2-0.2 13.4-10.7-8.5-2-11.2z"/><path class="o" d="m1227.5 1036.5l0.8 12.9 4.7 9.5-30.1-2 3.5-7.2-1.3-12.4z"/><path class="o" d="m1233 1035l1.5 13.5 22.9 0.2 4.2-21.1z"/><path class="o" d="m1227 1083.3l30.1-3.2 8.8-7.5-0.3-12.9-8.5-11.7-22.6 1-1.5-13.5-5.7 1 1 13.2 5 9.5-6 11.2z"/><path class="o" d="m1265.9 1060.6l29.1-5.9 5.9-12.7-16.6-14.9-22.9 1-3.8 20.6z"/><path class="w" d="m1294.7 1054.7l14 26.1 21.6 21.6 21.9-14.1-28.1-45.8-23.2-0.5z"/><path class="x" d="m1140 1038.5l-26.2-1-15.4 18.9 22.1 44.1 28.9-1.5 10-17.5z"/><path class="x" d="m1098.6 1056.4l-20.1 15.4-20.9 45.3 20.9 11.7 19.9-7.4 3.7-7.5 18.2-13.4z"/><path class="x" d="m1098.6 1121.4l24.2 25.1 29.3-21.4-2.4-26.1-29.4 1.5-18.2 13.6z"/><path class="x" d="m1151.9 1124.6l12.4 7.5 26.2-5.5 14.1-24.6-33.3-30.2-11.7 9.5-9.9 17.9z"/><path class="x" d="m1190.2 1126.6l12 49.3 17.9-0.3 31.1-15.4 11.7-12v-10.4l-40.8-44.1-17.5 8z"/><path class="x" d="m1078.5 1128.8l2.7 48 13.5 12 24.1-8 10.5-22.9-6.8-11.4-24.1-25.1z"/><path class="x" d="m1081 1176.8l-14.5 2.8 4.3 38.3 13.9-0.2 10-28.9z"/><path class="x" d="m1084.5 1217.9l49-2-2.3-21.1-12.4-14-24.1 8z"/><path class="x" d="m1133.7 1213.7l34.6-3-2-10.5-14.9-12.2-20.4 7.3z"/><path class="x" d="m1166.3 1201l12.5-10-2.3-17.4-10.9 0.8-8-8.7 3-8.8-31.3 0.8-10.5 23.6 12.9 14 19.9-7z"/><path class="x" d="m1160.1 1157.2l4-25.1-12-7.3-29.3 21.9 6.2 11z"/><path class="x" d="m1168.6 1210.7l8.9 0.5 8-7.2 16.4-27.9-11.7-49.3-26.4 5.8-3.7 24.6v1.7l-2.2 6.8 7.4 8.9 11.5-1 2 17.4-12 10.5z"/><path class="x" d="m1185.5 1204.2l22.1 0.8 12-15.5 0.2-13.9-18.4 0.3z"/><path class="x" d="m1168.6 1210.4l-4.8 47.6 23.7 7.4-2.5-38.8-7.7-15.4z"/><path class="x" d="m1185.5 1227.1l24.1 17.9 4.3 15.7-15.2 10.2-11.5-5.5z"/><path class="x" d="m1213.9 1260.7l27.1-10 1.7-21.1-6.5-11.2-1.7-13.7-14.7-16.2-12.2 16.5-22.1-0.5-8 7.2 8.5 16.4 24.1 16.9z"/><path class="x" d="m1265.6 1072.6l-0.7 6.7 11.9 11.2 13.7 2.7 18.4-12.6-14.2-25.4-29.1 5.4z"/><path class="x" d="m1276.6 1090.5l-3.5 35.1-10 11.9-41-43.5 4.7-10.7 30.6-3.2 8.2-7.3-0.5 6.5z"/><path class="x" d="m1263.4 1148.2l17.9 9 14.7-0.5 17.6 9.9 14.5-11.6-18.2-28.7-19.9-9.2 0.5-23.6-13.7-3-3.5 35.1-10.4 12.4z"/><path class="x" d="m1309.4 1126.1l8.5-5.2 12.4-18.2-21.9-21.7-17.9 12.2-0.5 23.4z"/><path class="v" d="m1418.6 1057.7l15.2 18.4 24.6 13.2 7.5-4-18.6-29.1-10.5-5.3z"/><path class="v" d="m1384.8 1068.9l18.9 37 14.9-12.4 14.7-17.2-14.9-19.1-10.5-6.8z"/><path class="w" d="m1363.6 1087.8l10.5 29.3 7 6 22.6-1.2-0.2-16.2-19.2-37.3-14.9-2.8z"/><path class="x" d="m1403.2 1121.6l12.7 21.9 41.3-28.6 1-25.9-24.6-12.9-14.7 17.4-15.2 12.7z"/><path class="x" d="m1380.6 1123.1l8.7 27.1 24.6-0.2 2-7.2-12.7-21.2z"/><path class="x" d="m1317.9 1121.1l33.1 23.2 11.4-27.7 11.7 0.3-10.7-29.1-11.7 0.7-21.4 13.9z"/><path class="x" d="m1351.2 1144.5l27.9 20.7 10.4-15-9.2-27.3-7-6-11.1-0.3z"/><path class="x" d="m1280.8 1157.2l28.1 38.6 7.5 4.9 1.5 14.5 30.1 18.4 26.8-15.7 4.3-52.5-28.4-20.9-32.8-23.1-8.5 4.7 18.7 29.1-14.5 11.7-18.1-10.5z"/><path class="x" d="m1251.2 1160.4l11.7 14 7.4 3.7 4 21.1-15.2 3.3-2.7-8-13.9-29.8z"/><path class="x" d="m1259.1 1202l-1 20.1-15.1 7-6.3-10.7-1.9-13.4-15-16.2-0.2-12.9 23.1-11.5 14.2 30.9z"/><path class="x" d="m1258.4 1222.1l11.7 4.8 7.2-0.8 7-22.1 24.9-8-28.7-39.1-17.6-8.9-12 12.9 11.7 13.5 8.2 3.9 3.8 21.4-15.5 2.8z"/><path class="x" d="m1277.3 1225.6l23.4 4.7 11.9-13.9 5.3-1.5-1.5-14.4-7.2-4.5-24.9 7.7z"/><path class="u" d="m1374.3 1218.2l24.7 25.6 11.4 4 12.7-5.8 2.8-24.3 0.4-42.1-12.1-25.4h-24.7l-10.4 15.5z"/><path class="u" d="m1426.6 1175.6l55.5 0.3 12.2-15-1.5-20.4-6.5-7.4-29.1-18.2-41.1 28.6-2.4 6.7z"/><path class="u" d="m1494.3 1161.2l15.4 2.5 3.5-7.8 4.2 0.5 0.5-16.6-7.2-15v-12.9l14.4-14.4v-3.5l-23.4-11.7-35.8 3-8 4.5-0.4 25.6 29.3 17.7 6.5 7.9z"/><path class="u" d="m1518.2 1140l14.4-2-0.5-10.9-6.5-5.7 2-4.8 12.2-6.9-15.2-11.7-14.1 14.2 0.2 13.4z"/><path class="u" d="m1624.9 1118.4l3.5 44h-21.7l-7.2-43.8z"/><path class="u" d="m1607.2 1162.2l-8.2 29.3-12.9-0.7-8.2-14.2-2.5-64.4 24.6 6.4z"/><path class="u" d="m1577.6 1176.1l-13.2 0.5-3.2 11.9-24.9 7.3-9.4-15.7 7.7-11.2 0.5-12.5h-17.7l0.3-16.4 14.9-2.2-0.3-10.7-6.4-5.7 2-5 12.2-7 35.3 2.8z"/><path class="u" d="m1598.8 1191.8l7.7 23.1h29.4l-7-52.5h-21.9z"/><path class="u" d="m1561 1188.5l33.8 29.7 11.4-3.3-7.9-23.6-12.5-0.5-8.4-14.5-13.5 0.3z"/><path class="u" d="m1595.1 1218.2l-0.3 10.2 5.5 11.9 42 19.2 47.6-7.3-6.8-16.9-47.2-20.4h-29.9z"/><path class="u" d="m1535.8 1195.8l5.8 42.5 53.5-10.2-0.3-9.9-33.8-29.7z"/><path class="u" d="m1509.2 1163.9l17.2 15.9 8.4-10.7v-12.7l-17.6 0.3-3.8-0.8z"/><path class="u" d="m1482.3 1175.9l1.5 24.1-17.9 7.2 0.3 31.6 18.1 7.7 40.1-6.2 3.6 22.9 5.1-0.5 8.7-24.6-5.5-42.8-9.2-15-17.9-16.4-14.9-2.7z"/><path class="u" d="m1425.6 1217.4l24.9 7.5 0.5 14.9 15.4-1-0.5-31.8 17.9-7-1.2-23.9-56.3-0.5z"/><path class="u" d="m1423.4 1242.3l27.6-2.7-0.8-14.7-24.3-7.2z"/><path class="x" d="m1241 1250.7h23.1l5.7-23.6-11.7-5-15.6 7z"/><path class="x" d="m1264.1 1250.7l27.4 29.7h21.6l3-38.9-15.4-11.4-22.4-4.2-8.5 1.2z"/><path class="u" d="m1313.1 1280.4l6.3 5.9 11.9-16.1 12.2 0.5 10.9-15.7-6.2-21.4-30.3-18.4-5 1.5-11.7 13.9 15.2 11.2z"/><path class="u" d="m1319.4 1286.3l13.6 16.7-10.9 24.9 23.4 2 9.4-7 0.5-29.4-4.4-12.9-7.8-9.9-12.2-0.3z"/><path class="u" d="m1321.8 1327.9l-5.4 27.4 6.4 17.6 29.4-1.2 7-12.2 13.9-6-1-11.9-17.2-18.9-9.7 7.4z"/><path class="u" d="m1354.2 1254.7l24.9 14 4.5 18.6 11.4-8.9-3.7-26.2 7.4-8.4-23.9-25.6-26.6 15.4z"/><path class="u" d="m1355.7 1293.8h13.7l14.2-6-4.8-19.1-24.4-13.5-11.7 15.7 9 10.5z"/><path class="u" d="m1383.1 1287.6l6.7 13.4 7.2 6-7.5 7.9 0.5 7.8 9.7 5.4 3 6.3-29.4 19.4-1.2-12.5-16.9-18.4 0.2-29.4 14.5 0.3z"/><path class="u" d="m1373.3 1354c1.8 0 8.8 1.3 8.8 1.3l14.9 17.6 32.1-17.9 4-18.2-12-8.4-18.1 6z"/><path class="u" d="m1394.5 1278.4l22.6-5.3-6.7-25.6-11.7-4-7.4 9z"/><path class="u" d="m1417.1 1272.9l25.2 11.2 16.6-6.2 7 8.9-12.7 27.9 4.7 16.4-25.1 6-11.4-8.7-18.7 6.5-3-6.8-10.2-5.7v-7.5l7.5-7.9-7.5-6.2-6.2-13.5 12.2-9.2z"/><path class="u" d="m1457.9 1330.9l38.1 14.7 14.5-20.5-3-34.5-33.4-24.9-10.9 4.5-4.5 7.9 7.2 9-12.7 28.1z"/><path class="u" d="m1473.9 1265.7l10.4-18.9-17.9-8-15.7 0.5-27.3 2.7-12.7 5.5 6.4 25.4 24.9 10.9 16.9-5.7 4.8-8.2z"/><path class="u" d="m1507.2 1290.6l24.7-14.5 1.4-13.2-5.4 0.3-3.5-22.7-40.3 6-10 19.2z"/><path class="x" d="m1309.7 1125.7l8.6-4.5 30.8 22.2-15.1 19.2-6.6-7.6z"/><path class="u" d="m1595.3 1228.1l5 13.5 43.5 17.9-17.1 28.1-23.7 8.7-33.8 1.8-22.9-5.3-17.2-15.6 12.5-38.1z"/><path class="u" d="m1643.6 1259l47-7-3.7 21.7-32.6 16.4-27.6-2.2z"/><path class="u" d="m1529.1 1277.2l-21.6 13.9 1.2 33.6 39.1-2 21.4-24.4-23.4-5.2z"/><path class="u" d="m1654.3 1290.1l43 60.5 27.4-12-0.5-29.3-37.1-35.6z"/><path class="u" d="m1602.8 1296.3l12.2 36.1 35.3-1.2 29.1 24.3 18.2-4.9-43.1-60.5-27.6-2.2z"/><path class="u" d="m1548 1322.7l24.4 31.6 0.3 6.5h19.6l22.4-28.6-12.2-35.9-33.3 1.8z"/><path class="u" d="m1592.3 1361.3l13.5 26.6 58.2 1.7 0.5-21.9 12.7-0.7 2.2-11.2-29.3-24.6-35.6 1.2z"/><path class="u" d="m1509.2 1324.9l-14.6 21.9-15.7 41.8 34.3-9.7 39.1 23.9 19.9-41.8v-7l-24.4-31.3z"/><path class="u" d="m1495.5 1346.3l-34.3-15.1-26.4 4.7-7.9 22.1 34.6 22.7 0.7 10.4 16.2-2z"/><path class="y" d="m1427.1 1358l-29.3 13.7-12.7 39.3 31.8 3 2.3-10.2 32.8 4.7 9.7-17.4-0.5-10.7z"/><path class="z" d="m1552 1402.6l8.7 22.6 43.6-15.4 1.2-22.2-13.4-26.6-19.7-0.5z"/><path class="z" d="m1663.8 1389.1l0.7 37.6 47.8-2.2 12.2-6.3-6.5-7.4-9.2-5-19.6 1-4.3-16.1 0.3-15.3-8-8.4-12.9 0.5z"/><path class="z" d="m1664 1426.7l-5.7 17.4 57.7-1.5-3.2-18.4z"/><path class="z" d="m1560.5 1425.2l-12.2 2.5-10.5 28.6-3.7 12.5 3 8.9 13.9-8.7 0.8-15.2 38.5 0.3 8.5 7.2 22.4-10.2 3-0.3 24.4 7 9.9-13.7 5.8-17.9-0.8-36.6-58.2-1.7-1 21.9z"/><path class="z" d="m1648.8 1457.8l0.3 12.4 18.6-0.4 21.2 1.7 16.2-2.2h13.9l0.2-18.7-3.2-8-57.5 1.3z"/><path class="z" d="m1705.1 1469.8l-0.5 9.9-18 3.5-4.7 46.5 10 18.2 22.9-1 4.2-77.6z"/><path class="z" d="m1667.7 1470l1.5 87.8 22.7-10.4-10-17.7 5-46.5 17.7-3.7 0.5-10.2-16 2.2z"/><path class="z" d="m1649.1 1470.2l-6.5 18 8.2 73.1 18.4-3.5-1.5-88z"/><path class="z" d="m1598.3 1461.5l-4.5 17-8.4 21.9 6.2 9.7 12.7-0.3 14.4-26.9 23.7 5.3 6.7-18.2-0.3-11.9-24.6-7.3-2.7 0.5z"/><path class="z" d="m1604 1510.1l6.8 42.8 10.7 10.4 6.4 9.7 21.9-1.7 1-10.2-8.7-72.9-23.6-5.5z"/><path class="z" d="m1591.3 1509.8l-0.5 15.2-3.4 2.5-4.8-10-7.2-2.2-8.2 8.7 7.2 19.7 10.7 5.9 8.5 6.5 17.2-3.2-6.8-43.1z"/><path class="z" d="m1551 1469l43.3 7.5 4-15.5-8.2-7.2h-38.3z"/><path class="z" d="m1536.9 1477.5l-6 10.9 0.7 20.2 22.7 15.6 13.2-0.2 8.2-9 7.4 2.8 4.3 9.2 3.4-1.8 0.5-15.9-5.9-9.2 8.7-23.9-42.8-7.2z"/><path class="y" d="m1385.3 1410.8l-3.2 0.2-0.3 8.5 28.2 11.9 1.4 18.7 4.8 8 28.3-16.5-3.9-6.7 11.7-26.4-33.1-4.9-2.3 10.2z"/><path class="y" d="m1444 1441.6l31.1-2.5 10-11.2-6.5-38.8-16.6 1.8-10 17.9-11.7 26.4z"/><path class="z" d="m1484.8 1427.7l9.5 8.2 7 13.7-0.8 15.7 8 5.9 25.6-2.4 14.2-41.1 12.4-2.7-8.7-22.4-38.8-23.9-34.6 10.2z"/><path class="z" d="m1475.1 1439.4l5.8 14.4 19.6 11.5 0.8-15.7-7-13.7-9.2-8.2z"/><path class="z" d="m1481.1 1453.6l-6 12.9 9.7 26.9 6.8 7.7 24.6-1.7 0.7-11 14 0.3 6.2-11.5-3.2-8.7-25.2 3-8.2-6.5z"/><path class="y" d="m1381.8 1410.8l-15.6-1.3-11.5 7.7-12.9 17.7 69.4 15.2-1.2-18.7-28.4-11.7z"/><path class="y" d="m1342 1434.9l-12.2 7.7-8.4 4-6.5 4-12.7 2.7 10 10 26.1-8 30.6 18.9 19.7-4.7 27.6-11.4-5.3-8z"/><path class="y" d="m1301.7 1453.3l-18.6 0.5 6.2 14 4.9 20.1 12.7 19.2 30.6-20.4-25.3-23.4z"/><path class="y" d="m1337.8 1486.4l30.8-12.2-30.3-18.9-26.4 8.5z"/><path class="y" d="m1306.9 1506.8l7 25.4 9.2 1 9.7-9.2 14.2-5.2 19.4-8.5 7.2-8.2-2.5-28.4-2.5 0.5-30.8 12.2-20.7 14z"/><path class="y" d="m1366.2 1510.8l6.9 16.4 12.2 0.3 1.8 8.9 27.1 8.7 12.2-27.1 5.9-7.7 0.8-9.4-4.7-7.5-10.7-6 13.2-12.7 17.1-14.9 10 11.2 17.1-5 6-11.9-6-15-31.3 2.3-27.9 16.9-26.4 11-18.9 4.7 2.8 28.1z"/><path class="z" d="m1433.6 1500.9l5-3.3 10.2-11.4 9.4-15.2-10.2-11.2-30.1 26.9 0.3 1 9.9 5.4z"/><path class="y" d="m1321.5 1533.4l9.3 8 12.7 11 7.2 5.4 14.2-1 22.4-20.6-1.7-9h-12.5l-7.4-16.9-14.7 7-17.9 6.4z"/><path class="y" d="m1364.7 1557.1l12.4 18.2 37.8-10.7-0.7-19.5-26.9-8.7z"/><path class="z" d="m1414.9 1564.6l28.1-12 6-22.1 35.8-37.1-9.9-27.4-16.9 5.2-9 15.2-9.7 10.5-6.2 4.2-0.8 9.5-6.2 7.7-11.9 27.1z"/><path class="z" d="m1491.6 1501.1l1 26.1 29.1 5.3 22.1-15.2-12.4-8.7-0.5-19.9-13.7-0.3-1 11z"/><path class="z" d="m1416.4 1564.1l10.5 20.9 22.6 0.5 0.3 8.4 9.2-0.2 6.4-21.2 0.3-32.3 27.6-13.2-1.7-25.6-7-7.8-35.6 36.9-5.5 22.4z"/><path class="y" d="m1377.1 1575.3l0.5 14.6 21.4 17 28.1-22.2-10.9-20.9z"/><path class="z" d="m1465.2 1572l17.9-1.2 10-17.9-0.3-25.9-26.9 12.9z"/><path class="z" d="m1492.8 1552.6l26.9 0.3 2-20.4-29.1-5.3z"/><path class="z" d="m1554 1524.2l-6.9 23.9-1.3 18.7 9.5 9.4 17.1-25.8 1.8-7.2-7-19z"/><path class="z" d="m1555 1575.7l-2.5 20.2 11.5 13.9 15.9 5.8 11.7-7.8-3.7-44.7 5.4-6.8-8.4-6.9-10.7-6-1.8 7.2z"/><path class="z" d="m1591.8 1607.4l36.4-16-0.3-18.6-6.4-10-10.7-9.7-17 3-6.2 7z"/><path class="z" d="m1519.7 1553.6l-1.5 7.2-3.7 4.5-1.8 11.9 8 13 18.4 8.9 13.7-3.2 2.2-20.2-8.9-8.9 1-19.2 7.2-23.4-10.7-6.9-21.7 14.9z"/><path class="z" d="m1483.1 1570.8l2.7 7.4 5.3 4.8 3.5 8.4 26.6-1-8.5-12.9 1.5-12.2 4.2-4.5 1.3-7.7-26.6-0.5z"/><path class="y" d="m1458.7 1593.7l27.9 10.2 8-12.5-3.5-8.7-5.5-4.5-2.7-7.4-17.2 1z"/><path class="y" d="m1399 1607.1l4 14.9 14.2 7.7 15.1-27.3 17.5-8.5-0.3-8.2-22.4-1c0 0-29.3 21.9-28.1 22.4z"/><path class="y" d="m1417.2 1629.7l0.2 23.4 20.2-1.7 3.7-11.7 20.7 0.2 11.4-8.2 13.2-27.8-27.9-10.5-8.9 0.5-17.5 8.7z"/><path class="y" d="m1473.2 1631.5l16.9 3.2 1.2-9.7 37.8-6.5 9.7-19.4-17.1-8.4-27.4 1-8 12.7z"/><path class="y" d="m1529.4 1618.5l2.2 27.9 26.9 7.2 20.7-17.4 0.5-20.9-16-5.7-11.2-13.7-13.9 3.2z"/><path class="y" d="m1490.1 1634.7l10.7 17.4 11.9 2.3 18.9-8.2-2.2-27.7-38.1 6.3z"/><path class="y" d="m1403 1622l-15.7 7-16.2 6-7.2 6.4-0.7 8.3 5.4 8.7 37.9 6.9 10.9-12.2-0.5-23.6z"/><path class="y" d="m1365.7 1673.5l0.5 13.5-10.5 4.2-5.5 10-21.6 3.9-8-3.9 1.8-24.2 14.9-7.2 11.4-3.5 3.5 2.3 8.2 1.7z"/><path class="y" d="m1368.6 1658.6l-2.9 14.9 0.2 13.7 8-0.7 13.4 6.4 8.2-5.7 5.5-1.5 5.5-20.4z"/><path class="y" d="m1401.5 1685.2l9.9 1.5 10.5 6 5.5 2 10.2 3.2 8.9 2 10.5 0.3 8.7-13 8-15.7-2.5-14.4-9.7-17.2-20.2-0.2-3.7 11.7-20.4 1.7-11.2 12.7z"/><path class="y" d="m1473.9 1671.5l19.9 14.5 11.5-3.3 5.4-16.4 1.8-11.9-11.7-2.3-11-17.6-16.1-3.3-12 9.2 10 17z"/><path class="y" d="m1493.8 1686l-19.2 16.4h-13.6l-3.8-2.5 9.2-13.7 7-14.7z"/><path class="y" d="m1505 1682.7l22.6 9 27.9-13.9 3-24.2-27.1-7.7-18.9 8.7-1.5 11.7z"/><path class="y" d="m1555.8 1677l23.6 6.2 22.6-7.4-0.2-38.8-22.4-1.3-21.1 17.9z"/><path class="y" d="m1527.1 1691.7l5 20.4 19.5 4.2 29-12.2-1.7-21.1-22.9-6z"/><path class="y" d="m1474.6 1702.9l8.3 11.2 27.1 6.7 22.6-8.2-5.5-20.9-21.6-9-11.9 3.3z"/><path class="A" d="m1690.8 1251.9l-3.5 21.9 17.3 15.5 19.2 19.2 24.6-18.7-0.5-9.9-19.2-19.9z"/><path class="A" d="m1724.2 1308.5l0.8 13.4 16.4 0.5 12.5 24.6 63.9-9.7-1.5-33.1-4.5-5.7-27.8-1.7-1.8-23.9-33.8 6.7v10z"/><path class="A" d="m1782.5 1272.9l38-18.2 7.5-1.5-3 23.4-13.2 22.2-27.3-2z"/><path class="A" d="m1837.5 1248.3l0.5-1.5 16.6-36.6 59.2 12.2-1.9 25.1-17.7 15.2 0.7 18.4-18.1-1.7-12-7.3-14.9-4.4-11.4-18.4z"/><path class="A" d="m1828 1253.2l9.7-5.2 12.4 19.7-8.2 11.7-16.6-3.3z"/><path class="A" d="m1817.1 1308l31.8 2.2 0.5-16.9-7.7-13.9-16.7-3.3-13.2 22.7 5 5.4z"/><path class="A" d="m1849.2 1309.7l22.3 12 10.7-28.9 13.7-3.2-1-8.7-18.1-1.5-11.7-7.3-15.2-4.4-8.2 12.2 7.9 13.9z"/><path class="A" d="m1817.6 1337.1l52.9 7.2 11.2-4.7-10.2-18.2-22.3-11.7-32.6-1.7z"/><path class="A" d="m1881.7 1339.6l18.7 22.4 16.7 10.9 7.2-6-5.2-7.4-0.3-5.7 8.7-12.2 0.8-6.7-21.9-23.7-18.4-19.6-6.3 1.2-10.4 28.1z"/><path class="A" d="m1928.3 1334.6l-0.3 1.7 9.7-0.2 14.2-3 4.5-60.7-30.9 8.7-29.6 8.5-8.2 1.7z"/><path class="A" d="m1956.4 1272.4l23.9-4.2 7.4 8.9 2.8 7.5-1 73.6-9.7-0.7-19.9-1.5-17.4-4.7-5.8-15 15.2-3.2z"/><path class="B" d="m1989.2 1358l31.6 25.4 5.5-0.5 4-8.7-1-6.8-6-14.1 23.4-8.5 12.7-13.9-30.3-51-5.5-6-5.5-1-6.2 3c0 0-13.7 5-12.2 5 1.5 0-9.5 3.4-9.5 3.4z"/><path class="B" d="m2059.2 1330.6l22.9 8.5 2.2 20.4 6 21.6-27.9-8.7 3.7-10.9-19.1-17.2z"/><path class="B" d="m2026.6 1382.9h20.6l15.7-10.7 3.2-11-18.9-16.6-23.9 8.7 6 13.6 1 7.3z"/><path class="A" d="m1924 1366.7l27.4 13.7 8.7-24.4-17.9-5-5.7-14.9-8.2 0.2-0.5 4.5-8.7 12.7v6z"/><path class="A" d="m1951.4 1380.4l34.4 49.5 15.1-0.2 14.7-29.4 5-16.9-31.1-25.2-29.6-2.2z"/><path class="A" d="m2000.7 1429.7l10.9 9.7 22.2-0.5-2.5-33.4-15.7-5.2z"/><path class="B" d="m2047 1382.9l3.4 36.8 18.7 19.7 28.9-3.3-7.5-55-27.6-8.7z"/><path class="B" d="m2011.6 1439.4l19.2 31.6 11.7 23.3 26.6-10.7 0.3-44.5-19-19.6-3.7-36.6-19.9-0.3-6.2 1-4.7 16.4 15.1 5.5 2.3 33.4z"/><path class="B" d="m2068.9 1482.9l21.1 7 9-13-0.8-40.8-28.8 3.3z"/><path class="A" d="m1724.8 1321.7l0.4 17.1-13 5.7-14.8 6.1 11.4 20.1 11.5 11.7 18.6 2 17.7-9-1-14.2-1.5-14.2-12.9-24.6z"/><path class="A" d="m1708.3 1370.7l-21.9 8.4-8.9-10.9 0.7-14.9 10-0.9 9.2-1.7z"/><path class="A" d="m1684.8 1378.2l0.1 13.6 2.3 9 1.7 5.8 21.2-1.1-1-17.6 11.2-5.3-11.7-12.4c0 0-23.8 8-23.8 8z"/><path class="A" d="m1709.2 1405.9l9.5 5.1 22-13.2-1.8-13.4-18.6-2-11.2 5.7c0 0 0.1 17.8 0.1 17.8z"/><path class="A" d="m1757.1 1375.7l22.6 14.6-0.7 9.7-54.3 18.5-6.1-7.1 22.3-13.6-2.2-13.4z"/><path class="A" d="m1779.2 1399.8l31.6 23.1 44.1 3 45.5-63.7-18.9-22.9-10.5 5.3-53-7.5-63.9 9.9 2.5 28.4 22.9 14.7z"/><path class="A" d="m1916.8 1372.7l17.4 26.6 17.7 27.1 11 13.2 9.4 3.2 13.7-12.9-34.8-50-26.9-13.2z"/><path class="B" d="m1972.3 1442.6l33.6 68.4 26.4 2.5 10.2-18.9-11.7-23.9-19.2-31.1-10.9-9.9-14.7 0.2z"/><path class="A" d="m1810.6 1422.9l-7 27.9 12.7 23.9 18.4-8.2 4.2 15.9 10.5 3.7 14.4-14.4 12 7.5 10.4 11.7 8-7.7-9-24.7 21.4-4.5 13-12.9 32.1-14.7-34.6-53.5-16.9-10.9-45.3 64.2z"/><path class="A" d="m1724.7 1418.5l-10.9 5.4 2.7 19.4 3 6.5 14.2 6.7 33.8-14.4 35.9 8.7 7.4-27.6-31.3-23.4z"/><path class="C" d="m1715.1 1545.9l26.3 10.2 5-4.8-12.7-95-14.4-6.5-1.5 48.1z"/><path class="B" d="m1746.4 1551.1l11.9-4 0.3-8.7 29.8-25.4 6.5-8.9 22.2-12.5-0.8-17.2-12.9-23.8-35.9-8.8-34.1 14.7z"/><path class="A" d="m1894.2 1482.9l15.4 2.7 5.2-12.4-7.9-19.2-21.7 4.8z"/><path class="A" d="m1914.8 1472.9l16.2 6.8 16.4 0.7 15.7-40.8-11.4-13.2-31.9 14.7-13.2 12.9z"/><path class="B" d="m2031.8 1513.5l6.7 14.7 29.4-4 18.1-23.9 4.8-10.4-21.2-6.7-26.9 11.1z"/><path class="B" d="m1947.2 1480.2l9.4 10.2-7.4 24.6 33.3 21.4h7l16.4-25.9-33.6-68.4-9.2-2.2z"/><path class="B" d="m1817.3 1491.4l12.9 7.7 24.4 25.4 6-4-11-34.6-10.9-3.7-4.2-15.5-17.9 8z"/><path class="B" d="m1860.8 1520.5l12 0.2 13.9-12.2-0.5-18.1-10.2-11-12.2-7.7-14.4 14.4z"/><path class="A" d="m1886.7 1508.3l20.2 8.7 24.6-37.3-16.7-6.5-5.4 12.4-15.2-2.4-7.7 7.4z"/><path class="B" d="m1872.8 1520.7l7.7 15.5 12.2 6.7-2.2 12.4-3.5 4.2 19.6 6.8 17.7-3.5 24.9-48.3 7.2-24.1-9-10.2-16.1-0.5-24.2 37.3-20.1-8.7z"/><path class="B" d="m1989.7 1536.9l22.2 19.9 19.4-2.2 7.2-26.4-6.5-14.7-26.3-2.5-16 24.7z"/><path class="B" d="m2031 1554.3l12 28.4 16.2 7.4 4.9 2.5 13-0.5 25.8-27.6-14.6-40.3-3-22.9-16.9 22.9-30.1 4z"/><path class="B" d="m2011.9 1556.8l-13 37.8 13 16.5 10.8-0.1 20.8-28.8-12.5-27.4z"/><path class="B" d="m1982.8 1536.4l-18.2 40.3 8.5 17.7 25.8 0.2 13-38-22.2-20.2z"/><path class="B" d="m1924.5 1562.5l40.1 14 18.2-39.9-33.6-21.6z"/><path class="C" d="m1854.6 1524.2l-8.7 30.1 6.5 9 20.1-10.5 4.3 0.8 9.7 5.9 4.2-3.9 1.7-12.7-11.6-6.7-8.3-15.2-12.2-0.5z"/><path class="C" d="m1811.6 1495.3l4 7.5 7.9 15.7 7.7 7.9-14.6 34.4 22.8-1 6.8-6 8.7-29.3-25.2-25.7-12.4-7.2z"/><path class="B" d="m1788.9 1512.8l18.7 20.4 10.2-11 5.7-4-12.2-23.4-16.4 9.3z"/><path class="C" d="m1758.1 1547.1l22.1 4.5 18.9 4.5 6-15.2 2.5-7.7-18.7-20.4-30.3 26.1z"/><path class="C" d="m1715.8 1546.4l-23.2 0.7-21.1 7 0.2 8.4 2.5 9.2 15.7 19.9 18.7 14.7 28.1-3.7 4.7-46.5z"/><path class="C" d="m1736.2 1602.3l11.7 13.5 32.8-7.7 16.4-16.2-8.7-16.4 11.5-11.5-0.8-7.9-20.4-4.8-20.1-4.2-11.7 3.7-5.5 5.5z"/><path class="C" d="m1796.9 1591.9l11.9-0.8-0.2-7.7 5.7-6.2-1.5-10.4 3.5-6.3-16.2 3.5-11.7 11.5z"/><path class="C" d="m1823.3 1519l7.9 7.9-14.4 33.6-16.2 3.3-1.5-7.5 8.7-23.4 10.7-11.2z"/><path class="C" d="m1808.8 1590.9l15.7 3.2 14.7-21.4 0.2-13.2-22.6 1-3.7 6.3 1.7 10.7-6 6.2z"/><path class="C" d="m1824.3 1593.9l4.2 16.2 25.1 7.2 9.7-11-5.2-24.6-6-18.9-6.4-8.7-6 6.2-0.3 12.7z"/><path class="C" d="m1863.3 1605.8l4-0.5 26.4-14.2 12.2 5.3 4.7-11-6.7-12.2 3.7-6.9-20.4-6.8-10.2-5.7-4.7-1-19.9 10.5 4.7 15.2 1.5 4.4z"/><path class="C" d="m1910.4 1585.2l25.1 14.2 6.2 4.7 9.7 11.7 21.7-21.4-8.7-18.4-39.6-13.2-17.4 3.5-3.3 7.2z"/><path class="B" d="m1951.7 1616l9.7 19.2 22.2-3 20.8-2.2 2.3-9.7 4.8-3.5 0.6-6.3-13.4-15.9-25.9-0.7z"/><path class="C" d="m1906.1 1596.4l-2.2 5.9-2 9 12.4 16.2-1.5 16.1 8.5 3.3 4.2-15.2 4.8-15.9 17.9 2.7 3.7-2.5-10.4-12.4-5.8-4.2-25.1-14.2z"/><path class="C" d="m1920.8 1646.6l21.4 27.4 22.9-20.9-3.7-18.2-9.5-18.9-3.5 2.5-18.1-2.5z"/><path class="C" d="m1942.5 1673.8l-0.5 7.2-10.1 4.1-4.4-5.8-15.9 0.7-29.2 0.7 0.1-18.9 30.1-17.9 8.7 2.7 21.2 27.2z"/><path class="C" d="m1853.6 1617l-2.5 27.1 19.4 18 11.7-0.3 30.9-18.4 1.2-16.4-12.4-15.7 2-9.5 2.2-5.4-12.4-5.8-26.4 15h-3.7z"/><path class="C" d="m1689.9 1591.4l-16.4 16.2-32.9 0.5-3.7-10.2-8.5-6.5-0.3-18.1 22.2-2.1 1-10.2 20.1-4.6 0.1 4.1 2.7 10.7c0 0 15.7 20.2 15.7 20.2z"/><path class="C" d="m1603.1 1637.4l25.6-14.7 11.7-14.9-3.5-9.9-8-5.8-36.7 15.2-12.2 8.2-0.6 20.7z"/><path class="C" d="m1628.7 1623l22.4 20.6 39.3-5.9-0.5-5.5-16.4-24.6-33.6 0.5z"/><path class="C" d="m1689.9 1632.4l14.4-1.2 9.7-4.2-5.7-21.2-18.6-14.2-16.5 16.2z"/><path class="C" d="m1714.3 1627.2l25.9 1 7.9-12.7-11.9-13.2-27.9 4.5z"/><path class="C" d="m1740.7 1627.7l-8.7 22.4 5.4 13.2 14-10.2 24.6 16.7 9.5-7 11.6-1 1-26.4-17.4-23.1-0.2-4.2-32.4 7.7z"/><path class="C" d="m1797.9 1635.2l9.4-6 20.9-19.1-3.9-16-15.5-3.2-11.9 1-16.2 16.4v4z"/><path class="C" d="m1797.1 1661.6l26.4 13.4 11.5-18.9 5.2-5.2 11.2-7 2-26.6-25.2-7.5-20.6 19.7-9.5 5.7z"/><path class="C" d="m1823.8 1675.2l36.5 5.5 10.2-18.9-19.4-17.4-10.9 6.5-5.2 5.2z"/><path class="C" d="m1823 1675.2l-1.7 39.1 10.1 3.6 17.5 6.8 18.8 8.1 8-0.2 5.1-8.8 1.6-44 0.1-18-12.2 0.3-9.7 19.1c0 0-37.6-6-37.6-6z"/><path class="C" d="m1776 1669.8l-2.7 16.4-9.5 14.4 10.9 43.9 18.7 1.4 28.1-31.8 1.3-39.6-25.2-12.7-12.1 0.8z"/><path class="C" d="m1737.2 1662.8l-0.8 11.7 9 19.7 18.4 6.2 9.5-14.5 2.4-16.4-24.1-16.2z"/><path class="C" d="m1745.1 1694.2l-24.1 10.7-6.5 23.3 3.8 5.3 7 18.2 14.3 24.9 4.9-1.5 7.6-7.4 4.9-8.1 18-15.9-11.2-43.1z"/><path class="C" d="m1717.8 1628l-3.5 7.7v12.2l-8.7 10.7-5.7 15.4 36.8 0.2 0.2-11.9-5.2-12.2 8.2-21.9z"/><path class="C" d="m1700.1 1673.8l-9 15.1 29.7 16 24.3-11-8.7-19.7z"/><path class="C" d="m1666 1719.3l10.2-30.4 15.2 0.3 29.6 15.9-6.7 22.9-11.3-1.7-10.6 0.2-10.2 2.2-15.4 3.8z"/><path class="C" d="m1651.1 1643.9l8.9 9.9-0.7 8.8-6.2 6.9 5.2 8.7-1.7 6.7-4.3 15.5-5.2 19.6 18.3 0.8 10.8-31.9h15.7l8.2-14.9 5.7-15.7 8.5-10.4v-13l4-7.4-4.5-0.5-9.5 4.5-14.4 1.2 0.5 5z"/><path class="C" d="m1652.8 1669.5h-24.1l-5.7 9.7 8.9 28.9-4.7 4 6.2 9.4 13.6-0.8 11.3-42.2z"/><path class="C" d="m1623.2 1679l-21.5-2.7 0.1-38.3 26.9-15 17.4 15.9 5.5 5 8.4 10.2-0.5 8.7-6.4 7-24.7-0.3z"/><path class="C" d="m1628.6 1711.3l-12.3-5.9-8.3-3.5-15 9.6-12.6-7.9-1.6-20.1 10.4-3.2 11.9-3.7 22.1 2.4 8.7 29.1z"/><path class="D" d="m1482 1714.2l21.4 4.2 6.7 1.7-0.7 22.7h-23.4l-8-5.2z"/><path class="D" d="m1510.7 1719.5l7.4-2.1 13.4-5 19.7 3.3-3.8 20.4-25.1 20.9-13.2-14.2z"/><path class="D" d="m1547.7 1735.8l29.8 9.7 16.2-5-1.2-29.3-12.2-7.5-29.4 12.2z"/><path class="D" d="m1593.7 1740.5l11 20.5 11.9-3.3 22.2-5 7.2-32.1-6.6 0.1-6.2-0.3-5.4-10.6-20.1-7.8-15.2 9.4c0 0 1.2 29.1 1.2 29.1z"/><path class="D" d="m1639 1752.5l27.6 0.2 1.1-22.3-2.6-10.3-18.6 0.3z"/><path class="D" d="m1667.5 1730.8l29.7-5.7 9.5 0.3 8.8 2.6 10.1 22.3 4.5 8.4 9.7 17.2-8.5 13.2-33.6 11.7-12.4-14.7-3.8-14-9.2-14.1-5.9-5.3z"/><path class="D" d="m1521.8 1757l3 12.9 14.9 3 21.7-0.8 16.1-26.8-29.8-9.5z"/><path class="D" d="m1561.1 1772.1l10 7 17.6-9.9 14.5-3.3 1-5.2-10.5-19.9-16.4 4.5z"/><path class="D" d="m1603.2 1765.9l4.2 6.7 25.1 5.5-1.2 8.7-2.8 17.9-0.9 3v11.2l17.6-4.2 4.7-36.8 22.4-20.2-5.9-5-27.2-0.2-35.3 8.5z"/><path class="D" d="m1645.2 1814.7l12.2 4.7 25.1-25.1 2.8-8-3.8-14.6-9.4-14-21.9 20.2z"/><path class="E" d="m1731.8 1789.3l6.7 7.5 10.7-6.2 6.3-0.3-0.3 9.5 15.9 2.7 32.9-23.9-13-33.3-18.9-0.8-15.4 15.7-4.7 7.5-8 7.2-4 1z"/><path class="E" d="m1803.7 1778.4l11.5 2.5 24.4-24.7 15.6-14.4 13.2-9-24.1-10.1-23.9-8.5-24.6 26.6-4.5 5z"/><path class="E" d="m1815.4 1781.4l3.3 13.1 14.6-1.7 22.9-34.6-0.5-16.7-4.5 4-12.4 11.5z"/><path class="E" d="m1882.4 1680.3l-3.5 44.1 5.9-0.5 25-43.9z"/><path class="E" d="m1878.4 1724.6l-3.8 8 20.7 11.4 16.2-21.4 4.7-1.2 16.2-17.9-0.5-18.2-3.5-5.7-20.4 0.2-23.2 44.3z"/><path class="E" d="m1916.2 1721.9l21.6 24.9 10 0.2 22.9-22.9-2-13.4-3.7-9.2-13.2-11.7-11.2-9.5-8.7 4.8 0.5 18.4z"/><path class="E" d="m1948 1746.8l1.3 4.7 14.7 8.7 14.1 12.7 8.5-15.4-0.7-24.5-15.5-8.9z"/><path class="E" d="m1895.5 1743.8l17.7 29.6 15.7-0.5 9.7-20.4-0.8-6-21.4-24.9-4.7 0.8z"/><path class="E" d="m1929.1 1773.4l11.2 13.2 10.7 11.9 17.9 5.5 11.5-20.9-1.8-10.5-14.1-12.4-15.5-8.7-1.2-4.5-10-0.2 1 5.7z"/><path class="E" d="m1833.6 1792.6l-0.3 7.2 4.3 11.9 6.4 3 59.5-4.2 9.5-37.1-17.2-29.6-21.2-11.2-6.4 0.2-12.2 8.2 0.2 17.2z"/><path class="E" d="m1903.3 1810.2l24.3 15.4 2-8.7 21.4-18.9-22.6-25.4-15.7 0.8z"/><path class="E" d="m1927.6 1825.4l3.8 6.2 19.1 21.9 12.9-3.6 6.3-11.5 4.5-16.7-5.8-17.7-17.6-5.7-20.9 18.6z"/><path class="E" d="m1950.8 1853.5l-0.8 15.9 23.2 5.3 0.1-10.1-10.3-14.6z"/><path class="E" d="m1770.9 1802.5l7.7 33.6 8-0.5 11.4-9.7 21.9-3.2 17.7-11.2-4.5-11.7 0.2-7-14.9 1.5-3-13.4-11.4-2.5z"/><path class="D" d="m1607.2 1772.4l-1.8 12.9 6.5 6.3 4.2 8.9 1 19.7 10.5-1.3-0.3-11.4 1.5-2.5 3.5-27.1z"/><path class="D" d="m1571.1 1778.9l3.7 20.6 8.2-1.5 14.4-10.9 8.3-2.3 1.7-12.7-4.5-6.2-14.4 3.3z"/><path class="D" d="m1540.2 1773.4l2 7 2.2 11.2 4.5 15.6 21.9 2.3 4-10.2-4-20.4-9.4-7z"/><path class="D" d="m1570.8 1809.5l8.5 13.9 7.9 2.7 13.7 8.5 9.5-11.2 7-3-1.5-20.4-4.3-8.9-6.4-5.8-7.8 2-14.1 10.7-8.5 1.3z"/><path class="D" d="m1525 1769.9l-13.9 16.2 7.5 20.4 18.4 15.4 12.2-14.7-5.3-16.4-1.4-10.7-2.3-7.5z"/><path class="D" d="m1511.4 1785.8l-5.8 2-30.1 2.3-7.4 18.6-6.8 10 1 8.9 11.2 3.8 12.7-3 13.2-8 19.2-13.9z"/><path class="D" d="m1537 1821.7l1.2 5.4 10.5 8.2 24.6-0.4 6-11.5-8.7-13.9-21.4-2.3z"/><path class="D" d="m1497.2 1821.7l21.6 21.9 19.7-16.7-1.8-5.5-18.1-14.9z"/><path class="D" d="m1601.2 1834.6l5 20.4 32.6 4.5 13.6-6.7 1.8-15.7 3-5.2 0.2-12.5-12.2-5-17.1 4.5-10.5 1.3-7.2 3.2z"/><path class="D" d="m1656.7 1831.6l47.2 4.2-6.4-35.3-12.2-13.9-3 7.7-24.9 25.4z"/><path class="E" d="m1703.9 1835.6l7.3 13.9 14.4-0.2 29.4-49.3 0.2-9.7h-6l-10.7 6.5-7.2-8-33.6 12.2z"/><path class="E" d="m1725.3 1849.8l11.2 24.4 33.1-13 9.2-25.4-8.2-33.5-15.4-2.8z"/><path class="E" d="m1843.8 1814.9l-2 31.9-55.5-11.5 11.9-9.4 22.2-3.5 16.9-10.9z"/><path class="E" d="m1841.5 1846.8l4.8 3 13.7 10.7 37.8-41.3 5.5-8.2-59.8 3.4z"/><path class="E" d="m1859.7 1860.5l4.5 17.4 40.8 3.5 9.9 22.6 42.6 21.7 15.1-8.6-7.5-12.1c0.1-5.2 0.7-2.9 0.7-5.3l11.7-13.6-3.9-11.7-23.8-5.2 0.7-15.7-19.1-21.6-3.5-6.3-24.4-15.1-5.5 8.4z"/><path class="D" d="m1473.3 1831.1l9.7 13.5 5.2 13.1 60 8.5 7.9-9.7-7.2-21.4-10.7-7.7-19.1 16.2-22.2-21.9-10.7 6.9z"/><path class="D" d="m1573.3 1834.9l6.5 7.9 1.2 12.2-25.4 1.5-6.9-21.2z"/><path class="D" d="m1488 1857.7l-1.8 5.3-17.1 22.6 11.6 24.1 46.8-7.4 8.2-21.9 17-1.3-4.8-12.9z"/><path class="D" d="m1480.7 1909.7l-14.1 17.5-12.5-10.7-11.2-8.5-8.2-6.5v-6.7l34.6-9.4z"/><path class="D" d="m1357.6 1902.8l12.9 22.1 17.4-3.2 30.1-26.1-0.5-10.2-5.7-9.5-29.3 0.8-8.2 5.4-3.3 5.5-9.2 3.2z"/><path class="D" d="m1332.4 1913.5l-1.4 30.6 16.6 16.9 12.5-2h24.9l5.7-8.2-2-14.4v-14.7l-18.7 3.2-12.2-22.1-10.4 4.2-6 2-2.5 3z"/><path class="D" d="m1332.9 1913.2l-24.8 9.2-2 55 8.7 7.5 6.7-0.5 26.1-23.6-16.6-16.7z"/><path class="D" d="m1466.6 1927.4l0.7 11 13 11.9 47.2-31.6 0.3-16.4-47.3 7.4z"/><path class="D" d="m1480 1950.3l3.5 10.7-8.5 10-20.9 11.2-17.9 8.7-10.7-11.7-4.5-13.2 25.2-17.7 21.4-10.2z"/><path class="D" d="m1483.5 1960.8l25.6-4.8 16.2-6.7 21.1-15.9-18.9-14.7-47.7 32.1z"/><path class="D" d="m1546.2 1933.4l14.4-2.8 6-6.7 1.5-11.9 2.2-13-0.5-7.2-17.4-12.7-16.9 1.3-8 21.9v16.7z"/><path class="D" d="m1436.2 1991.1l-0.5 13.5 4 10.4 4.5 9.5 34.3 1.7 10.5-20.2 2.2-16.6-15.7-18.7z"/><path class="D" d="m1478.5 2026.2l29.4 4.7 16.6-22.1-1.7-14.9 6-13.5 30.3-15.2 1.8-34.6-15.2 3-19.9 15.5-16.7 6.9-25.6 4.8-8 9.9 15.9 18.9-2.4 16.7-9.5 19.4z"/><path class="D" d="m1443.9 2024.5l-6.4 15.9-16.2 2.7 2 23.4 60.4 0.5 25.2-9.5 10.2-11.9 8.7-3-0.8-11.4-12.4 3.7-6.5-4-29.1-4.7-33.8-1.7z"/><path class="D" d="m1423.3 2066l-7 35.3 32.3 27.7 22.7-27.9 12.4-34.1z"/><path class="D" d="m1448.9 2128.5l4.2 19.4h33.4l2.5 10.7 18.1-0.8 7.5-8.9 4-48.3-47.3 0.2z"/><path class="D" d="m1507.4 2157.8l7.2 8.5 83.3-31.9-1.4-10.7-19.2-16.9-24.6-16.2-6.3-0.2-28.1 10.4-3.7 47.8z"/><path class="D" d="m1508.9 2057.8l9.4 42.8-47 0.5 12.4-34.1z"/><path class="D" d="m1550.9 2090.4l0.5-40.1-23.6-7.7-9 3-9.7 12.2 9.5 43 27.6-10.4z"/><path class="D" d="m1551.4 2050.6l22.9 5 26.9 23.1-4.7 44.8-18.7-16.2-25.4-17.2-1.5-0.2z"/><path class="D" d="m1559.4 1965.2l26.4 14.7-3.8 13.7-14.9 22.6-40.1 15-12.4 3.7-6.5-4.2 16.2-21.9-1.3-15.2 5.8-13.7z"/><path class="D" d="m1601.4 2077.5l-5.5 42.5 1.7 15.2 31.7-0.6-19.4-93 3-16.4-12.2-18.9-9.7-8.2-8.5-4.7-15.4 22.8-40.1 15 0.5 11.2 24.4 8.4 22.7 4.8z"/><path class="D" d="m1566.6 1923.7l24.9-2.3 31.3-11.9 12.2-27.6 3.5-22.7-32.6-4.4-5-20.4-13.9-8.8-8-2.4-5.7 11.7 6.5 8.4 1.2 11.5-24.9 1.5-7.9 9.9 4.5 13.2 17.1 12.2 0.5 7.7-1.5 9z"/><path class="D" d="m1585.5 1980.2l8.5-20.4 1.5-8.5 3.9-2-8.2-27.9-24.6 2-6 7.7-1.5 33.9z"/><path class="D" d="m1622.8 1909.3l9.7 19.1-18.6 23.6-14.5-2.7-8.2-27.9z"/><path class="D" d="m1623.6 2122.6l8.2 11.1 16.2-19.4 15.1-8.7 9.5-14.5-0.8-31.3-16.6 1.7v14.5l-8.5-0.8-24.6-44.5-2.8-47.8-5.4-31.1-14.5-2.5-3.7 2-1.7 8.7-8.5 19.7-3 13.9 9 4.7 9.2 7.7 12.4 19.5-11.4 53 13.5 6 4 14.4z"/><path class="D" d="m1632 2133.9l3.3 20.9 27.8 12.2 13-8.7 1.2-34.1-13.9-18.9-15.7 9z"/><path class="D" d="m1655.4 2061l-7.2-76.9-29.1-0.7 3 47.5 24.6 44.3 8.5 0.8z"/><path class="D" d="m1652.4 1934.1l-20.1-5.7-18.4 23.9 5.7 31.6 1-0.7 27.9 1.2 10.2-7.7 1.7-29.6z"/><path class="D" d="m1634.8 1881.6l33.1 15v28.3l-16 9.2-19.6-5.7-9.5-18.9z"/><path class="D" d="m1667.9 1896.6l20.6-6-0.2-14.7-10-14.4-11.7-7.2-14.4-1.5-13.9 6.7-3 22.1z"/><path class="D" d="m1688.3 1876.2l22.9-26.7-7.5-13.9-46.3-4-3.2 5.7-1.8 15.5 14.7 1.5 12 7.4z"/><path class="E" d="m1658.4 1976.7l38.1 2.2 5.2-3.5-3.5-12.4-8.7-16.4-1.2-13-20.4-8.7-15.2 9 7.7 13.4z"/><path class="D" d="m1673.1 2080.9l8.7-2.2 2.5-39.1 24.6-23.9-12.4-36.8-37.3-2.2-11 7.7 7.7 77.1 15.9-1.7z"/><path class="D" d="m1676.3 2158.3h34.1l13.9-23.9-9.7-23.4-13.9-16.9-28.4-3-8.9 14.7 13.9 18.4z"/><path class="E" d="m1688.5 1890.3l15.7 10.5 4.2 8.7 7 10-27.4 14.6-19.6-9.2-0.5-28.1z"/><path class="E" d="m1715.4 1919l7.7 10.4v30.1l-7.5 12.7-13.9 3.2-3.7-12.9-8.7-15.9-1-13z"/><path class="E" d="m1736.5 1874.2l0.8 51.5-14.4 3.5-8-10.2-6.7-9.7-4-8.5-15.9-10.5 0.2-14.4 22.7-26.4 14.4-0.2z"/><path class="D" d="m1700.7 2094.1l18.9-17.4 12.2 6.5-16.7 28.3z"/><path class="D" d="m1708.4 2015.7l18.9-1.4 13.2 9.4-2 12 8.7 18.6-1.2 22.9-14.7 5.7-11.9-6.2-18.7 17.4-28.4-2.7 0.3-10.2 9.2-2.5 2.5-39.3z"/><path class="D" d="m1724.6 2133.7l28.1-9.5 13.2 10.2 13.7-3.9-4.2-35.1-29.4-18.2-14.4 5.7-16.2 28.4 9.4 23.6z"/><path class="D" d="m1747.7 2054.8l12-11.7 5.5-11.9-24.9-7.7-1.5 12.2z"/><path class="E" d="m1737.3 1925.4l9.9-4 9.5-10.9-6-16.7 12.5-13.2-1.8-16.6-24.9 9.9z"/><path class="E" d="m1769.9 1861.5l8.9 5.4 5.8 7.8 47-12.7 9.9-15.2-54.2-11.2-8.7 0.5z"/><path class="E" d="m1756.7 1910.5l9.7 6.5 16.4 11.2v-18.2l1.8-35.3-5.5-7.8-9-5.4-8.7 3.2 2 15.9-12.9 13.5z"/><path class="E" d="m1783.1 1911.2l38.3-1.7 14.2-22.4-3.8-25.1-47.2 12.9z"/><path class="E" d="m1773.6 1949.8l-15.4-8.5-11.2-20.1 10.2-10.5 25.6 17.7 5 7.5z"/><path class="E" d="m1773.1 1949.6l-9.4 22.6-47.8 0.3 7.5-13.2-0.3-30.1 14.7-3.8 9.7-4 10.9 19.7z"/><path class="D" d="m1765.4 2030.9l10-0.7 11.7-25.6-9-17-14.4-15.4-48.1 0.5-13.6 2.5-5.5 4 12.7 36.5 17.9-1.7 13.9 10z"/><path class="D" d="m1775.4 2095.6l38-25.6-3.7-20.7-34.6-19.1-10.2 0.5-4.7 12.4-13 12-1.2 22.6z"/><path class="D" d="m1779.8 2130.2l38.6 18.9 5.2-1 4.8-32.1 8.9-39.3-24.1-7.2-37.6 25.9z"/><path class="E" d="m1787.8 1935.4l26.4 6.2 14.7 7.2 4.2-20.6-11.5-18.5-38.8 1.8 0.3 17.4z"/><path class="D" d="m1845.3 1983.9l-11.2-16.7-5.5-18.6-14.4-7-26.4-6-15.2 14.7-8.9 22.2 14.9 15.6 8.7 16.7 11.2-0.7 3-7.3 19.1 5.8 16-0.5z"/><path class="D" d="m1821.1 2003.1l-11.2 46.5-34.5-19.4 11.9-25.4 11.4-0.7 2.8-7.3z"/><path class="E" d="m1864.2 1877.6l3.2 67.2-8.9 2.3-4-5.8-21.7-13.1-11.2-18.9 14.5-22.4-4.5-24.9 9.9-15 5.8 3.3 12.9 10.2z"/><path class="E" d="m1867.7 1944.6l8.4 0.2 11.7-23.9 27.1-16.9-10.2-22.9-40.8-3z"/><path class="D" d="m1844.8 1984.1l7.7-1.7 6-35.1-3.8-6.4-21.9-12.5-4.2 20.7 5.5 18.1z"/><path class="D" d="m1852.7 1982.4l33.4-6.7-10-31.1-8.7-0.3-9.2 3z"/><path class="D" d="m1886.6 1975.7l15.9 4.7 9.5-9.7 6.7-10.7 39.9-21.6-0.5-13.2-43.4-21.2-26.9 17.4-11.7 23.9z"/><path class="D" d="m1836.6 2002.3l18.6 20.7 33.6-8.5 13.7-34.1-16.7-4.7-39.5 7.9-1.3 0.8z"/><path class="D" d="m1855 2022.2l-1.8 18.4-22.9 34.1-16.9-5-3.7-20.4 11.4-47 15.7-0.2z"/><path class="D" d="m1853.5 2040.4l18.2 7.4 24.3-4.7-7.2-28.6-33.8 8.5z"/><path class="D" d="m1836.8 2076.5l14.2-3.3 20.7-25.4-18.2-7.4-23.7 34.3z"/><path class="D" d="m1823.6 2147.9l65 14.2 20.4-31.1-2.5-10.5-14.7 0.3-8.2-32.1-32.9-15.5-13.9 3.3 0.3 1-8.7 38.5z"/><path class="D" d="m1896 2043.1l16 10.7-0.5 12.7-22.4 12.4-5.8 9.8-32.3-15.2 20.4-25.4z"/><path class="D" d="m1909.5 2130l17.9-3 14.2-10.5 9.7-16.2 4-6.9 12.9-3-14.4-31.4-42.3 7.8-22.7 12.1-5.2 9.8 8.2 32.1 14.7-0.3z"/><path class="D" d="m1912.2 1970.5l15.7 12.9 36.4-15.4-0.3-12.8 4.7-7.9-12.2-8.7-37.8 21.7z"/><path class="D" d="m1912.2 2053.3l21.4-23.1 22.9 3.2 3 3.5 0.5 5.5 5.7 5.2-11.7 11.4-42.3 7.8z"/><path class="D" d="m1963 1968.2l16.1-2.7 6.8 13.9 10.2 17.9-3 58.3-10 36-14.9-1.2-14.4-31.4 12.2-11.4-6.3-5.5-0.2-5.2-3.2-3.7-22.4-3-21.9 23.4-16-10.5-7.2-28.6 14-34.1 9.9-10.2 14.9 12.7z"/><path class="D" d="m1979.4 1965.5l7-9 10.8-8.7 12.1 0.7 8.2 2.9-1.3 22 4.7 8.8 0.8 16.6-25.9-1.2-9.9-17.9z"/><path class="D" d="m2021.4 1998.6l23.4 34.1 31.9-5.8 22.6-17.4 8.5-10.7-12.7-11.7-16.9-16.4-10.5-8.7-13.7-8-12.4-7.4-4-3.3-8.4 3.8-11.7 6.2-1 20.1 4.9 9.3z"/><path class="D" d="m2099.1 2009.8l8.7 10.2-8.5 11.7-12.7 19.1 8 11 1.7 7.4 12.5 13.5 36.6-20.4-18.2-31.6 6.2-10.5-0.7-2.7-13-12-12.2-6.7z"/><path class="D" d="m2044.6 2032.7l-4.5 27.6-4 16.7 1.3 2.9 52.2 17 19.7-14.2-13.2-13.5-1.5-7.7-8-10.7 21.2-30.8-8.7-10.2-22.4 17.4z"/><path class="D" d="m2037.1 2079.7l-4.5 13.4 22.7 33.1 19.4-4 13.4 8.3 8.7-8.8-8.7-10.9 1.5-14.2z"/><path class="D" d="m2055.3 2126.5l-16.7 13.2-22.6-23.4-18.9-12.2-14.2-13 10.4-36 42.1 21.4 2 3.7-5 13.2z"/><path class="D" d="m1996.1 1997.6l25.6 1.2 23.4 33.9-8.7 44.5-43.3-21.9z"/><path class="F" d="m2402.8 1942.3l7.8 0.8-0.8 9.6 6.8 1-2.6 6.3h1.8l2.6-5 14 3.4-1.3-6.7-1.3-9.2-18.2-6.7z"/><path class="G" d="m2403 1942.4l2.9 0.3 4.7 0.3-0.4 4.4-0.4 5.4 4.5 0.6 2.2 0.5-1.6 4-0.7 1.7 1.8 0.1 2.6-4.8 4 1.1 5.5 1.3 4.4 1.2-5.8 3.3-6.8 4.1-14.4 0.7-8.4-2.5-2.7-7.7 5.1-8.3z"/><path class="E" d="m2076.8 1592l18.2 7.7 12.2-15.4-6-19.2-7.2 5.5-12.2 13.2z"/><path class="E" d="m2094.5 1599.7l13.9 16.2 24.1 3.5-1.4-11-12.5-15.6-11.4-8.5z"/><path class="E" d="m2076.6 1591.8l-13.5 1 1 35.8 13.5 14.2 31.1-26.4-14-16.9z"/><path class="E" d="m2063.4 1592.8l-20.4-10-21.7 28.1 49.5 44.1 6.8-0.8v-11.2l-13.7-14.7z"/><path class="E" d="m2077.6 1654.5l21.6-2.3 34.6-17.4-1-15.7-23.9-3.2-31.1 27.1z"/><path class="E" d="m2070.8 1655l-0.5 15.9-21.1-2.8-20.2 21.4-7.9 0.3-8.7-10.2-15.7-10.2 8.4-21.2 4-11.4-5.4-6.7 2.9-9.7 4-4.5 1-4.5 10.5-0.5z"/><path class="E" d="m2003.9 1629.8l-43.3 4.8 0.5 9.2 4.2 8.9 31.1 16.7 12.7-32.6z"/><path class="E" d="m1965.1 1702.5l20.4-19.9 11.4-13.2-31.8-16.7-23.4 20.4-0.5 9z"/><path class="E" d="m2020.8 1689.5l-7.4 16.5-13.7 22.4-14.5 4.4-14.6-8.9-1.5-13-4-8.7 20.9-20.4 10.9-12.2 16 10z"/><path class="E" d="m2029 1689.8c0.8 1 40.6 3.7 40.6 3.7l0.7-22.6-21.6-3.2z"/><path class="E" d="m2069.8 1693.5l31.1 8 11-16.9-8-14-3.2-6.9-1.7-11.5-21.7 2.3-6.7 0.5z"/><path class="E" d="m1999.9 1728.4l18.4 13.9 13.5 4.7-18.7 17.4v17.2l-18.9 12-2 7.2-21.4 10.9-2-6.2 0.5-4.2 10-18.8-0.5-12.8c0 0 6.2-12.7 7.2-12.7 1 0-0.5-24.2-0.5-24.2z"/><path class="E" d="m1971.1 1811.7l3.2 10.2 31.6 16.7 5-13.4-17.2-19-1.2-5.4z"/><path class="E" d="m1974.3 1821.9l-5.7 16.2-5.5 12.2 4.2 7.2 5.3 7.7 0.5 11 4.2 8.9 16.7 5.2 22.6-0.4 12.4-12.2-23.6-39.6z"/><path class="E" d="m1977.5 1885.6l-12.4 14.5 0.2 4.7 6.5 12.4-7 4.3-7.2 2.7 0.3 15.7 10.9 7.9-5.5 7.2 0.3 6-0.1 7.4 16.8-3.4 16.9-16.7 11.7 0.3 10.2 4 10.2-6 9.7-1.5-7.2-6.5-21.9-9.4-10.2-3-6.7-0.8-3.5-4.7-2.3-3-0.2-7.2 7-20.2c0 0-16.5-4.7-16.5-4.7z"/><path class="E" d="m2016.3 1889.9l-3.4 21.8 1.5 7-4.3 10.2-10.7-3-6.2-0.5-6.2-7.9v-7.2l7-19.7z"/><path class="E" d="m2029 1877.7l13.2-6.5h4l6.7 7 10.2 28.8-24.9 37.1-1.7-0.5-4.7-5-22.2-9.9 4.8-10.2-1.5-6.3 3.7-22.3z"/><path class="E" d="m2063.6 1906.5l31.6 12.5-0.5 19.9-15.4 13.9-7.5 12.4-20.1-12.9-13-8.7z"/><path class="E" d="m2095.2 1918.5l-0.2-18.7-9.7 3-23.4-30.4-9.2 5.8 10.7 28.6z"/><path class="E" d="m2010.9 1825.2l20.9-21.7-5.3-15.2-13.4-6.9-18.9 11.9-1.7 7.7 1.2 5.5z"/><path class="E" d="m2062.1 1872.2l7-9.2-3.5-13.2-17.7-7-1.9-31.6-14.5-7.7-20.4 21.7-5.2 13.1 22.6 39.1 14-6.2h3.7l6.7 6.5z"/><path class="E" d="m2069.8 1693.5l-4.9 14.5 14.9 16.6 0.7 39.8-19.9-8.4-28.8-9.2-13.7-4.7-18.4-14.2 13.9-22.4 7.7-16.2 8.7 0.7z"/><path class="E" d="m2026.8 1788.3l16.9-11.9 0.8-9.7 16.9-10.2-28.9-9.7-19.9 17.9 0.5 16.7z"/><path class="E" d="m2046 1811.2l17.4 3.8 7.2-8.3 5.2-17.1 18.2 5.7 8.9-8.2-22.4-22.9-18.6-8-17.2 10.7-1 9.7-17.2 12 5.5 15.4z"/><path class="E" d="m2070.6 1807.2l9.9 5.8 14-18-18.9-5.4z"/><path class="E" d="m2065.9 1850l17.4-8.2-2.5-29.1-10.2-5.5-7.2 7.8-17.7-3.5 2 31.8z"/><path class="E" d="m2069.3 1863l17.2-4.5-2.7-16.7-17.4 8.2z"/><path class="E" d="m2086.8 1858.7l15.6 33.4-7.2 7.7-9.7 3-23.6-29.9 7.4-10.4z"/><path class="E" d="m2080 1724.4c1 0.2 21.2-5.7 21.2-5.7l11.2 11.9-3.7 9.7-11.7 4.5-1.5 34.6-14.7-15.7z"/><path class="E" d="m2108.9 1740.3l18.7 19.9-24.4 26.9-8-7.7 2-34.6z"/><path class="E" d="m2101.4 1701.5l47.6 31.1-21.4 27.9-18.9-20.2 3.9-9.9-11.4-11.7-21.1 5.9-15.3-16.7 4.9-14.5z"/><path class="E" d="m2132 1619.9l12.2 1.7-0.5 9.5 10 1 11.7 12.9v10l-6.5 4.7-49.5 8.9-3.7 4.5-5-10.2-1.5-10.7 34.8-17.6z"/><path class="H" d="m2153.2 1631.3l15.4-16.9-6.4-12.4-23.2-2 7.5 11.2 1.2 11.2-3.7-0.5v8.7z"/><path class="E" d="m2158.4 1659.7l31.4 29.1-40.8 44.3-48.1-31.9 11-16.6-6.2-11.7 4.2-4.5z"/><path class="E" d="m2189.8 1688.6l7.4-4.8 29.2 27.9 17.9-9.2 31.8-15.9 7.7-0.3 3.8 7.2-8.2 7.7 8.7 30.9-20.2 10-4.2 12.1-0.3 9-26.3 6.2-30.7 19.2 23.9 43.5 6.8 7-0.5 15.4-19 10.2 6.5 14.2-1.2 7.7-43.1 17.2-17.1 23.9-67.7-9 0.2-18.4 7-9-15.4-33-3.3-17-3-28.6 14.2-17.9 9.2-8.5 24.2-26.8 20.6-26.9z"/><text transform="translate(2117,1845)"><tspan x="0" y="0" class="I">1</tspan><tspan  y="0" class="I">2
</tspan></text><path class="E" d="m2162.7 1927.7l2.4 38.3-10.7 20.4-8.4 16.7-2.3 5.4-9.4 9.2-20.7-15.4-7.7-3.1-10.7-12.6-16.2-15.4-7.4-6.5 7.7-11.9 15.7-13.9 0.7-20.2z"/><path class="E" d="m2165.1 1966l29.2 27.9-13.5 21.4-11.7 17.1-8.9 27.4-15 1.7-18.3-31.1 3-5.2 4.4-7.7 9.7-8.7 1.7-6z"/><path class="H" d="m2168.4 1613.9l20.9-10.9-1-34.1h-17.2l-4 11.7-4.7 21.6z"/><path class="H" d="m2165.4 1645.3l14.7-12h8.9l21.9 10.2 12.2-15.7-9.2-11.9-15.9-0.8-8.7-12.4-20.7 11-15.4 18.1z"/><path class="H" d="m2213.7 1615.6l5.9-18.1 0.3-25.1-13.2-14.7-18.4 11.4 1.2 34.1 8.5 11.7z"/><path class="H" d="m2171.4 1568.6l2.9-25.1 31.7-2.7 0.7 17.1-18.4 11z"/><path class="H" d="m2197.7 1684.1l-0.2-5.7-22.7-22.9-8.9-1-7.2 5.2 30.8 28.4z"/><path class="H" d="m2197.7 1678.6l14.5-10.7-1.3-24.6-22.1-10.2-8.5 0.5-14.7 11.4-0.2 10 10.4 0.7z"/><path class="H" d="m2212.2 1667.9l20.6 2 11 32.3-17.7 9.7-28.9-28.3 0.5-5z"/><path class="H" d="m2223.1 1627.3l36.6-14.9 0.2-7.5-21.4-26.8 7.3-29.1 21.9-7.8-0.8-13.6-60.9 13.2 0.4 17.1 13.5 14-0.3 25.6-6.2 17.9z"/><path class="E" d="m2229.8 2093.4l9.2-28.4-8.2-5.4-1-7.5 9-17.9 22.1 0.2-9.4-30.8-29.4-18.9-27.8 8.9-24.9 38.8-9.2 26.4 29.6 29.6z"/><path class="E" d="m2229.8 2093.1l4 2.5 0.3 4.5 24.6 1 19.7 10 4.4-2.5 1.8-19.7c0 0-10.2-6.7-11.2-6.7-1 0-8 0.2-8 0.2l-4-6.2 5-10.9 2-11.5-1.7-10.4-0.5-5.5-4-3.5-23.4-0.5-9 18.2 1.3 7.7 8.2 5.5z"/><path class="E" d="m2222.1 1984.9l14.2-35.6 23.1 9.2 10.2-9.9-16.9-16.9-13.7-15.7-1.9-5.2-14-24.4-43.3 17.1-17.1 24.4 2.4 38.3 29.2 27.7z"/><path class="E" d="m2269.9 1948.6l4.2 0.5 13 19.6-35.4 35.4-29.6-18.9 14.5-36.1 23.1 9.4z"/><path class="E" d="m2265.7 2037.4l46.7-54.7 9.8 0.2 3.4-3.2 5.3-0.3 1.5 3.3 7.2 0.2 3-14.2-22.2-9.2-19.4 13.7-13.7-4.5-35.6 35.4 9.2 29.8 1.5 0.8z"/><path class="E" d="m2283.1 2108.3l22.1-11.7 9.5-13.2 29.6-23.8 7-21.7 0.5-12.4-12.2-7.8 11.4-17.1-3-12-8.4-5.9h-7.5l-1.2-3.5-5.5 0.5-3.2 3.2h-10l-46.5 54.3 3 16.6-2 12-5 10.2 3.5 6.4 8.9-0.2 10.2 7.2z"/><path class="H" d="m2260.9 1605.4l57-58.9 0.3-13-36.6-4.9-1.3 11.2-12.6 1.7-21.9 7.5-7.3 28.8 21.2 27.6z"/><path class="H" d="m2259.7 1612.2l1 6.4 38.1 0.3v8.2l23.8-3.5 17.5-44.3 10.9-4-1-14.9-31.8-14.2-58.3 60.2z"/><path class="H" d="m2233.1 1669.9l12.9-8.2 12.9 11.4 7.3-0.7-12.5-24.4 18.9-0.8 11.7 6.5 15-26.6-0.8-8.5h-37.8l-0.8-5.9-36.3 14.4-12.4 16.4 1 24.4z"/><path class="H" d="m2266.4 1672.6l9.5 14.2-31.9 15.9-10.9-32.6 13.2-8.4 12.9 11.7z"/><path class="H" d="m2284.3 1685.8l14.7-11.7-11.9-12.9-2.5-7.2-12.5-7.2-17.6 1.2-0.5-0.3 12.2 24.9 9.7 14z"/><path class="E" d="m2263.7 1763.2l4.2 6-7.2 7.4 15.7 16.7 0.5 2-0.3 9.7-7.2 4 4.5 27.9v2.4l-36.6-0.2-7.2-7-23.7-43.5 30.7-19.4z"/><path class="E" d="m2273.9 1839.3v14.7l-9.5 7-32.3 17.2-8 0.7-6.5-14.4 19.2-10.2 0.8-15.2z"/><path class="E" d="m2264.9 1860.7l20.2 18-16.2 12.9-11.2 9.7-9.2 9.7-9.5 4.7-2.2-5.4-13.9-23.9 1.5-7.7 7.9-0.5z"/><path class="H" d="m2285.3 1878.7l16.7 19.1-1.5 11.5-13.2 0.5-13.2 39-4.7-0.2-16.2-16.2-13.9-16.7 9.7-4.7 9.9-10.4 9.8-8.3z"/><path class="E" d="m2301 1909l2.7 23.4 15-3 7.9 13.2-6.4 16.9-19.2 13.7-13.9-4.2-13-20.4 13.5-39.1z"/><path class="H" d="m2351.5 1575.3l39.8-4.7 1.5 25.4-49.7 7.2 1.2 19.9 14.7 18.2-5.2 36.6-66.5 15.6-3-7.2 15-12.4-12.2-12.7-2.8-8 15-26.4 23.8-3.4 16.7-43.8z"/><path class="E" d="m2288.1 1732.1l16.4-0.3 3.5-13.9 10.9-31.3-31.3 6.7-8.2 7.9z"/><path class="E" d="m2354 1677.6l3.5 8 0.2 12.7-4.4 12.1-8.3 7.3-16.1 5.7-12.7-0.3-8-6.7 11-29.6z"/><path class="E" d="m2327.9 1723.6l-1 20.2 21.9 7.7-2.5 20.9-13.4-4.5-22.2 13.5-43-12-4.3-6.2v-8.7l4.5-12.7 20.4-9.5 17.4-0.9 2.5-14.2 8 5.9z"/><path class="E" d="m2348.8 1750.8l4.5-2.8 3.2-12.7 1-12.2-2.5-7.9-1.5-4.8-8 7.3-18.1 5.9-0.5 20.2z"/><path class="E" d="m2273.9 1836.4l45-8.3 4.2-4.7-12.1-42.3-43.1-12.2-7 7.5 15.7 17.4 0.5 11.7-7.7 3.5z"/><path class="E" d="m2346.3 1772.2l26.9 12.6-0.3 27.4-19.9 8.2-2.2 8.2-27.4-5.4-12.4-41.8 22.1-13.5z"/><path class="E" d="m2372.9 1812l4.7 3.5 5.3 8.4-12.7 20.9-10-8.7-9.4-7.5 2.2-8.4z"/><path class="E" d="m2284.3 1878.7l22.2-0.8-0.3-18.9 5-15.7 7.7-15.2-44.8 8.3-0.2 18.1-8.7 6 20.4 18.2z"/><path class="E" d="m2306.2 1878.2l9 11.7 22.9-2.8 5.2-9.2-18.2-39.1-3.2-13.6-3.2 3.4-7.2 15-5 15.6z"/><path class="E" d="m2343.1 1876.9l16.9-1.2 10.4-31.4-10.7-8.7-8.9-7-27.4-5.4-1.5 3 3.7 12.9z"/><path class="H" d="m2342.6 1968.5l11.2-8.5-1.3-17.4 4-6 0.2-8.2-1-7.7-7.9-9.9-0.3-11-9.4-12.9-23.2 2.7-8.7-11.9-20.9 1 17.2 20.1-1.7 10.5 3.2 23.3 14.7-3.2 8.2 13-7 17.4z"/><path class="H" d="m2391.6 1570.1l4.7-6 43.3-19.1-1.7 10.2-3.3 7.2-8.4 14.9 1 8-8 4.2 8.2 7.2-3.5 6.5-6 9.2-14.1-9.2-11-7.5z"/><path class="H" d="m2417.7 1612.4l6.7 10.7-26.4 38.6-11.7 16.9-10.2 4-9.9 7.2-8.5 4.2-0.2-8.7-3.3-7.9 5-36.6-14.9-17.9-1.2-19.7 49.5-7.5z"/><path class="E" d="m2358 1697.5l39.5 0.3 0.8-7.3-5.2-6.7-6.5-5-10.2 4-5.2 3.5-4 3.2-9.7 4.5z"/><path class="E" d="m2356.5 1736.6l41.5 13.4 20.9 2.5 21.4-22.6-42.8-32.6-39.5 0.5-4.7 13.6 4.4 11.7z"/><path class="E" d="m2372.9 1785.1l24.9-35.1-41.3-13.4-3.2 11.2-4.8 3.5-1.7 21.1z"/><path class="E" d="m2382.9 1823.7l11.4-0.3v-15.4l22.7-20.9 1.7-35.1-20.9-1.7-24.9 35v27.2l5 3.2z"/><path class="E" d="m2417.7 1787.1l11.7 8.2 5 6.2 5.4 6.5 1.3 5.5-0.8 11.2-34.5 6.9-11.5-8.2v-15.4z"/><path class="H" d="m2405.5 1832.1l-8.7 8 6.2 23.1 2.5 15.7 4.7 17.7-0.2 4.9-35.8-0.5-14.2-25.3 10.4-31.4 12.5-20.4 11.7-0.5z"/><path class="H" d="m2409.7 1901.3l3.5 24.4-1.7 9.7-9 7.5-8.2 13.6-46.3 32.1-8.4-5.9 3.2-14.5 11-8.2-1.3-17.9 4.2-5.7-0.2-8-1-7.9-8-10.2v-11l-8.9-12.4 5.2-9.7 16.4-1.5 13.7 25.3z"/><path class="E" d="m2394.1 1956.5l2.7 7.5 8 2.5-1.3 12.2 3 16.4 3.2 18.4-16.4 5-42.5-18.2-2.8-11.7 32.9-22.4z"/><path class="E" d="m2344 2059.3l29.9 18.2 4.2-34.6 16.2-0.3-0.7-24.1-42.3-17.9-12 17.4 12.5 7.5-0.3 12.9z"/><path class="E" d="m2373.7 2077.5l12.6 16.6 20.2 41.8-36.1 27.2-7.7-13.7-12.7-30.1-45-22.4 9.9-13.5 29.9-23.8z"/><path class="H" d="m2426.9 1584.5l17.9 2.3 26.4-26.9-1.2-15.2-20.9-4.9-9.5 4.9-2 10.5-11.4 22.4z"/><path class="H" d="m2470.9 1559.4l28.7 15.2 31.8-26.9-12.7-31.8-48.5 28.8z"/><path class="H" d="m2499.6 1574.3l0.5 19-15.5 1.2-25.8-22.4 12.6-12.4z"/><path class="H" d="m2499.6 1592.3l34.5 19.6 43.6-8.4-27.6-52-18.7-3.8-31.6 26.9z"/><path class="H" d="m2424.4 1623.1l19.9-11.7 6.5 0.5 21.6 6.2 3.5-0.7 8.7-22.7-25.6-22.6-14.4 15.2-16.7-2.3-9 4.5 8.5 7-9.2 16.2z"/><path class="H" d="m2398.5 1690.5l30.9 2.5 7.6-2.4 21 5.8 3.7-22 34.1-22.4-4.2-13.5-12.7-1.2-3-19.9-4 0.7-20.9-6.2-6.4-0.5-19.9 11.7-38.4 56 7.5 5.2z"/><path class="H" d="m2491.6 1638.8l9.5-5.7 13.6-0.3 19.7-20.9-33.8-18.9-16.2 1.7-8.2 23.2 2.5 19.4z"/><path class="H" d="m2499 1695.6l16.5-16.9-1.3-16.5-18.1-10.8-35.4 23.5-3.1 20.3 7.5 1.8z"/><path class="H" d="m2440.1 1729.9l27.1-33.4-18.6-2.7-1.1-17.8-11.9 10.6-6.2 6.4-30.9-2.2-0.7 6.7z"/><path class="H" d="m2514.5 1661.4l7.7-6.9-7.2-21.9-14.4 0.2-9 6.2 4.7 12.7 18.7 11z"/><path class="H" d="m2522 1654.2l13.1-8.4 31.6 2.9 6.5 23.7-46.5 14.4-11-8.7-1-16.2z"/><path class="H" d="m2566.7 1648.5l-5.2-29.4v-12.2l-27.4 5.3-18.9 20.9 7.5 20.6 13.2-8.2z"/><path class="H" d="m2573.5 1671.9l7.2-1.3 10.2-2.9v-10.7l-4-20.2-4.2-30.9-5.3-2.4-15.6 3.4-0.5 11.7 5.7 30.4z"/><path class="H" d="m2591.1 1655.5l4.3 5.2 21.9 3.2 2.4 17.7 6.5-2.3 4-2.7 4.2-9.7-5.9-45.3-16.7-18.9-29.1 3.5 4.2 32.1z"/><path class="E" d="m2406.5 2135.7l28.4-6.2 8.2-21.7-57.2-14.4 6.9 13.7z"/><path class="E" d="m2435.1 2129.7l8.2 3 33.1-30.8 7-31.4-15.7-27.9-9.9-7.7-13.5-8.7-34.6-12.9-16.6 5.2 1.5 24.1-16.7 0.3-3.7 34.8 12.1 16.4 56.8 14z"/><path class="d" d="m2404.8 1966.7l14.9-1 12.7-6.9-2.5-16.2-18.7-6.7-8.2 7-8.9 13.9 2.9 7.2z"/><path class="E" d="m2432.1 1958.8l33.1 0.5 11 13.2-16.2 27.6-15.9 26.1-34.4-12.9-6.4-34.6 1.7-12 14.7-0.7z"/><path class="H" d="m2429.9 1942.4l17.2-25.2 18.6-3.5-3.7-23.8-25.9-0.3-25.6 7.2-0.8 5 3.8 23.4-1.5 10.7z"/><path class="H" d="m2465.7 1914l17.4 0.5-0.2 19.4-17.7 25.1-32.6-0.2-2.7-16.4 17.7-25.4z"/><path class="H" d="m2440.3 1824.7l3 15.1 7.2 13.2h18l2.2 9-31.8 4.5-2.5 23.1-25.9 7.2-5-17.1-2.2-16.2-6.5-23.7 9-7.7z"/><path class="H" d="m2470.7 1862l-2 7.7-6.7 19.9h-25.6l2.2-23.1z"/><path class="H" d="m2469 1853.5l3.4-27.3-8.7-13.5-22.6 0.3-0.8 12.7 3.3 14.4 6.7 13.2z"/><path class="E" d="m2469 1820.4l4.4-15.1 7-21.4-4.2-22.4-35.9-32.1-21.6 23.3-1.7 34.4 12.9 7.9 9.7 12.7 1.7 5.5 22.2-0.7z"/><path class="H" d="m2476.2 1761.7l21.1-13.2v-36.1l9.7-2.4-0.5-7.5-6.9-8.5-32.6 2.3-26.7 33.6z"/><path class="H" d="m2526.7 1686.6l-0.5 13.4 3.5 8.5v9.2l-12.5 0.7-9.9-8.4-0.5-7.8-7.5-7.9 0.8-15.9 16.4-0.3z"/><path class="H" d="m2497.3 1748.3l18.9 7.7 30.4-9.7v-11l-9-11.2-7.7-6.4-13.2 1-9.4-8.7-10 2.7z"/><path class="H" d="m2480.7 1783.4l20.9 14.6 19.4 1-4.5-43.3-18.9-7.2-21.2 13.2z"/><path class="H" d="m2546.8 1746l13.5 22.4-26.2 8.5-0.9 16.7-12.5 5.4-4-42.8z"/><path class="H" d="m2560 1768.2l7.2 12.2-6.9 14.2-27.1-0.8 0.9-16.7z"/><path class="H" d="m2560.5 1794.8l6.5 32.8-16.2 7.5-24.4-20.1-5.4-16 12.4-5.4z"/><path class="H" d="m2525.9 1815.2c-1.2 0.3-34.5 19.4-34.5 19.4l-19.5-8.2-2.7-6.7 11.7-36.1 20.9 14.7 19.4 0.7z"/><path class="H" d="m2550.8 1835.6l-4 19.9-26.3-5.2-6.5 10.9-14.9-2.5-8-24.3 35.3-19.2z"/><path class="H" d="m2513.2 1861.2l6.8 27.9-6.8 0.3-30.1 25.3-17.4-0.7-3.7-24.4 9.2-27.6-2.7-8.7 4.2-26.6 18.9 7.9 7.7 23.9z"/><path class="H" d="m2567 1827.6l12.7 3.3 1.5 47.5-21.9 2-12.2-24.9 3.7-20.1z"/><path class="H" d="m2520.2 1889.1l65 12.4-0.5-8.2-5.3-5.4 2-9.7-22.4 2.2-11.7-24.6-26.6-5.5-7.2 11.4z"/><path class="H" d="m2483.1 1932.6l11.7-0.2 19.9 7.7-14.1 47.5-16.7 36.6-16.2 18.2-23.4-16.7 19.2-31.1 12.7-22.1-11-13.7 17.4-24.4z"/><path class="E" d="m2542.1 1983.9l-15.4-3.7-9 16.1-16.6-8.7-16.5 36.6 34.6 12.2 2.3 17.2c0 0 24.1 5 25.3 4.7 1.3-0.2 8.5-7.7 8.5-7.7l23.9-4.7 6.5-18.2-32.6-9-2.8-16.6 16.7-25.2-2-6.2z"/><path class="H" d="m2514.5 1940.1l24.6-6h7.2c0 0 10 9.7 11 9.7 1 0 7.5 26.9 7.5 26.9l-22.9 13.2-15-3.7-9.7 16.1-16.6-8.4z"/><path class="E" d="m2483.4 2071l38.3-17.4-2.5-17.2-34.3-12.2-17.7 18.4z"/><path class="H" d="m2476.9 2101.9l15.9 8.9 41.8 10.7 20.5-3-8.3-59.9-25.3-4.8-38.1 17.2z"/><path class="H" d="m2534.9 2122c-0.3 2.2-9 83.4-9 83.4h-10.7l-6.4-13-31.1-2.2-1.5-26.9 14.7-25.1 0.9-27.9z"/><path class="H" d="m2525.4 2205.1l37.9 4.5 31.6 4.7 19.9-73.4-17.2-7.2-9 0.7-6.2-17.1-27.3 1.2-20.5 3.3z"/><path class="H" d="m2546.6 1735.6l36.3-17.4 46.8-2.3 3.2-17.9 16.7-3-0.7-22.4-14.2-5.7-4.5 10-4 2.2-6.7 2.2-2.2-17.1-22.2-3.5-4.5-5 0.5 11.7-11.7 3.7-5.9 1-21.7 6.7-25.6 8 0.2 12.7 3.5 9.7-0.2 9 8.4 6.4z"/><path class="H" d="m2559.8 1768.4l10.7-3.5 1.5-15.4 14.2-7 0.7-11.4-3.7-12.9-36.9 17.4v10.7z"/><path class="H" d="m2567.5 1779.6l16.2-3.5 4.7-6.9 32.1-15.5 9.2-37.8-46.8 2.5 4 13-1 10.9-13.7 7.5-1.5 15.6-10.4 3.3z"/><path class="H" d="m2620.7 1754l20.7 22.4 34.8 4.7 46.8-56-36.1-28.6-37.3-1.5-16.7 3.3-3.5 18.6z"/><path class="H" d="m2686.2 1695.5l-2-20.4-15.9-8.2 12.2-22.1 9.2 0.7 12.7 23.4 36.5 2.7 10.7 30.9-26.8 22.6z"/><path class="H" d="m2579.2 1830.6l6.2-1.5 4.7-17.4 3.3-12.2 3.7-10.2-13.7-13.2-15.9 3.8-7 14.9 6.7 32.6z"/><path class="H" d="m2585.9 1828.6l22.2-1.7 4.2-16.2 14.4-0.5-1.5-14.9-28.3-6.2-3.5 10.7z"/><path class="H" d="m2626.7 1810.2l0.5 5 2.7 2.7 11.7 0.3-0.5-41.8-20.6-22.7-32.6 15.7-4.2 7 13.7 12.9 27.8 6z"/><path class="H" d="m2641.6 1818.2l36.1 0.2-0.7-37-35.4-4.8z"/><path class="H" d="m2584.7 1901.5l19.4 11.7 12.9-11.7 4-18.4-1.3-8.2-6.2-20.1 12.5-5 15.4-31.6-11-0.3-3.2-2.9-0.7-4.8-14.2 0.8-4.5 15.7-21.1 2.2-7 2 1.7 47-2.5 9.7 6.3 6z"/><path class="H" d="m2627 1848.3l0.7 7 18.4 20.1 30.1-4.2 1-53h-35.6z"/><path class="H" d="m2617 1901.5l31.4 17.5 27.8-47.8-30.1 4-18.6-19.9-0.5-6.3-13.7 5.3 6.4 20.6 1.3 7.7z"/><path class="H" d="m2557.3 1944.1l21.9-16.7 25.6 9 29.9 0.5 12.9-9.2 1-9.2-31.6-16.7-12.7 11.4-19.6-11.2-64.2-12.9-7.5 0.3-30.4 25.3 0.8 17.7h11.4l20.2 7.7 24.4-5.7 7.4-0.3z"/><path class="H" d="m2585.2 2027.7l44.5-25.4-5-15.4-6.7-15.7-18.7-5 5.8-30.1-25.9-8.9-21.9 17.1 8 27.2 2.2 5.4-17.2 25.4 3 16.7z"/><path class="H" d="m2618 1971.7l18.2-14.9 3-2-4.3-17.9-29.8-0.5-6 29.8z"/><path class="H" d="m2639.4 1954.8l43.3 18.2v13.9l18.2 8.5 30.3-26.4v-19.2l-5-19.6-42.8-1.5-2.7 8.7-32.6-9.7-13.4 9.2z"/><path class="H" d="m2579.4 2045.4l21.2 14.4-3 73.7-9 0.7-6.4-16.7-26.9 1-8.5-60.7 8.3-7z"/><path class="H" d="m2700.9 1995.4l10.7 30.3 11.9-1.5 39.3-2.5-31.3-52.7z"/><path class="H" d="m2711.1 2026.2c-0.3 1.3-3.8 12.7-3.8 12.7l-43.8 11.9-2.7 19.7-44 30.4-2.3 39.5-16.9-6.9 2.7-73.9-20.9-14.5 6.5-17.6 44-25.2-3.9-12.9-7.7-17.9 19.4-15.7 2.2-1 43.3 18.2-0.5 13.9 18.4 9z"/><path class="H" d="m2723.3 2024.5l-2.3 12.4-7.9 24.6-4.5 22.7 57.5-25.6 0.5-20.9-3.3-16z"/><path class="H" d="m2660.6 2070.5l27.3 21.9 20.9-8 3.8-23.1 3.7-9 4.7-15.1 2.3-12.7-12 1.2-3.7 13.2-44.3 11.9z"/><path class="H" d="m2614.8 2141.2l26.3-8.5 20 9.5 27.1-49.8-27.6-21.9-44.1 30.6z"/><path class="H" d="m2595.4 2214.1l9.4 14.9 14.4 5 52.3-14.7 24.4-36.1-35.1-41.3-19.9-9.2-26.1 8.5z"/><g style="opacity:.1"><path class="J" d="m1309 1922.8l-3.1 54.6 9.5 7.7 7-0.3 25.7-24.3 13.4-1.4 23.5-0.4 6.4-7.7-2.1-12.7-0.4-17.2 29.9-26.8-0.3-9.1-6-9.5-28.9 0.7-9.1 5.6-2.1 6-10.2 3.2-5 11.6-15.8 5.6-3.2 3.5-9.8 1.1z"/><path class="J" d="m1482.5 1714.1l-7.9-11.4h-13.9l-4.5-2.8-9.9-0.2-15.7-3.5-11.9-5-7-4-8.7-2-7 1-8.9 7.5-13.2-7-8.2 0.3-4 3.5-8.5 2.7-3.2 8-20.2 3.9-8.2-3.2 0.8-24.9 14.6-8.2 12.2-2.5 6.3 3.8 11.2 3.9 3.7-11.7-7.7-12.9 1.7-12.2 14.7-5.5 24.4-8.4-4-18.4-22.9-15 1-14.6-13.2-15.2-14.2-0.5-27.1-25.4-10.2-0.5-5.5-26.1-13.6-19.2-5.3-21.9-7.2-14.9 28.4 1.2 26.1-11.9 11.9-14.4 8.5-12 10-6.2 19.1 1.2 11.3-37.2-14.8-16.3-8.9-1.7-13.7 5.4-6.8 12.2-29.3 1.3-6.7-17.4 5.7-27.4 10.9-25.1-12.7-18.5-7.7-4.7-21.4 0.3-27.1-29.7-23.4 0.3-26.1 9.5-16.2 10.7-11.7-7.3-23.6-6.2 6-47-34.4 2.7-5.4 4.5-58.5 0.5-3.8-39.1 14.5-1.5-1.8-50-21.9-9.9 1.5-8 19.4-38.8 18.5-15.4 17.6-18.9 25.4 0.7 5.2-11.7-20.4-36.3-28.1-10-0.2-7.9-23.2-7.2-1-0.5-5.7 6.7-10.2 0.7-25.1-6.4-13.7 30.6 38.6 28.6-5.8 8.2-28.8-6.2-18.7 50.7-24.4-13.2-9.2-23.9-38.6-12.4-13.4-1.2-0.2 13.1-48.6 14.5-13.9-23.9-30.4 3-9.4-8.7-26.9 16.1h-19.4l-6.7-19.1-6.7-4.7-44.6 13.9-17.1-4.2-14.5-8.2-21.1-24.9-18.9 1-22.2-20.4-1.7-10.7-10.5-17-11.2-2.2-16.1 8.5-11-0.3-9.2-4.5-6-15.4 26.9-24.1-16.9-19.2-6.7-1-28.9-34.1 1-21.1 26.6-19.9 53-25.9-6.9-11.7-18.5-13.4-15.9-7.5-6.9 9.2-13.2 2.7-47.3-16.9-33.8 11-3.3-7.5-5.5-0.2-1.2 4.4-12.9 3.3-50.3-50-2.5-6-15.4 0.2-4.2-13.4v-36.8l-9.3-11.7-12.4-51.8-10.9-40.5-10.7-35.9-30.4-66.2-19.2-35.5-17.6-35.6-17.2-29.4 13.7-7.9 68.9-26.7 83.1-23.9 29.4-13.1 48-12.7 28.4-11 77.9 13.2 37-13.4 44.1-18.9 32.1-11.7 58.2-30.4 9 6.5 6.4 31.8 6.7 30.6 14.5 88.6 41 27.1 25.7 79.4-31.4 35.1-7.5 12.7 7.5 25.1 3.2 61.5 9 13.9-9.7 20.7 33.6 75.1 35.6-10.4 23.6 1 51 14.6-6.5 20.7 21.9 29.1 15.5 15.4 12.9 9.7 55.7 93.1h14.5l32.6-7.7 19.2 30.3h1.4l24.2 1 5.9 16.4 14.2-14.6 16.7-1.8 14.2-47.3-0.5-24.3 13.2-4.5 6.4-8.2 39.6-8 33.8-37.3 24.9 5 28.1-13.2 31.6 5.7 18.9-12.2 0.5-15.9 14-3.5 17.1 13.7 26.4-3.5 10 30.9 14.9 17.1 7 21.2 19.6 14.4 4 12.9-7.7 16.7 32.8 25.6h35.4l13.9 31.6-10.5 5 13.7 24.9-23.1 14.2 5.5 31.8 4.4 30.4 4.3 18.9 17.6 34.8 5 8 1.8 38.1 4.2 44 7 53.3 48.2 19.9 7.5 15.7 37.9 8.9 18.1 18.9 11.2-1 24.2-5.5 37.3-18.4 18.2-6.4 16.4-38.6 59.9 12.9-2.4 24.7-18.2 15.9 0.5 18.4 2 8 16.9-6.5 42.5-11.5 16-3.7 9.9-0.2 6 9.7 1.2 4.7 1.5 2.2 10-4.2 16.7-8 7.4 2.5 14.5 20.4 20.9 36.9 22.8 7.2 1 19.1 7.5 23.7 4.7 37.6 2.5 19.4v39l-8.2 12-5 11.7 2.8 23.4 14.3 37.1 4.6 22.2 12.4 7.7 11.7 15.2 1.2 11.4 15.2 3.8-1.2-10.7-7.5-11.7 24.2 2.5 2.9-24.4 6.8-11.5 2.9-23.9 29.9-3.2 60.2-11.7 1.8 13.2 12.2-0.7 1.9-12 35.9 5.5 0.2 13.2 32.9 12.7-0.8 14.9 40.1-4.7 6.9-7 51.6-22.9 21.6 5.2 49-30.3 14.2 34.1 18.4 1.7 25.4 52.8 6.7 2.4 28.1-4.2 16.7 19.9 6.5 44.8 13.7 6 1.5 22.6 35.5 1.8-1.5-21.2-15.9-8.4 12.2-21.9 8.2 0.7 13.7 22.9 36.6 2 11.4 31.8-27.8 22.7-46.8 54.5 2.2 38.3-2 53-27.6 46.8-0.5 10.4 33.6 9.7 2.5-9.2 42 1.5 5 18.4 0.5 19.9 15.9 27.2 15.7 25.6 3.5 16.2v21.1l-55.5 25.1-22.4 8.7-27.1 49.1 35.1 40.8-24.2 36.5-53.7 15-14.7-4.5-7.9-15.4-67.7-8.2-12.7-0.3-6.2-13.4-31.9-1.8-1.2-26.6 14.9-24.9v-27.3l-14.7-9.5-32.6 30.6-8.2-3.5-29.3 6.5-36.6 27.9-4.5-9-15.4-34.6-44.3-23.1-28.1 14.2-18.5-9.7-25.3-0.5-0.3-5-3.2-2.5-41.1-5.7-28.8-27.9-15.9 2.8-22.8 13.4-12.7 6.9-19.9 14.2-1 13.9 6.4 7.5 1.3 5.5-6.2 5.2-4.3 1-10.2-7.5-8.4 0.3-11.7 3.7-16.4 12.2-22.7-22.6-18.4-11.2-14.9-13.2-15-1.8-12.9 3.5-13.2 22.4-14.4 11.5-18.4 3.2-20.7 32.1-36.3-9.5-27.9-5.4-6.7 1.2-37.8-19.1-14.9 4.4-12.2-10.2-27.9 9-13.9 25.9-34.1-1-13.2 8.9-28.6-11.7-3.5-21.1-33.4 0.5-83.6 32.3-7.7-8.9-18.1 0.5-4-10.7-31.9 0.2-4.7-18.6-31.1-28.4 5.7-24.9 1.5-11.4-2.7-21.4 16.6-3.3 5.5-15.9-7.4-19.7 0.7-14.9-11.9-11.4-3.8-12.5 25.4-18.1 20.7-10-1.3-12.2-11.4-9.2-19.4-15.2 0.5-5.9 34.8-9.7 15.9-22.4 2-6-6.7-15.2-7.2-10.9-11.7-4c0 0 0.2-8.2-0.5-10.2-0.8-2 6.7-8.7 6.7-8.7l6.7-19.4h18.2l13.7-0.8 5.4-2.7 12-15.2-2.5-14.2-12.7-13.7-23.6 0.8-8.2-5.7z"/></g><text style="transform:matrix(1.738,0,0,1.738,1410.67,823.272)"><tspan x="0" y="0" class="K">1</tspan><tspan  y="0" class="K">0
</tspan></text><text style="transform:matrix(1.789,0,0,1.789,1368.661,1113.1)"><tspan x="0" y="0" class="K">1
</tspan></text><text transform="translate(1795,1398)"><tspan x="0" y="0" class="L">2</tspan><tspan  y="0" class="L">0
</tspan></text><text transform="translate(1735,1656)"><tspan x="0" y="0" class="M">1</tspan><tspan  y="0" class="M">9
</tspan></text><text transform="translate(2004,1549)"><tspan x="0" y="0" class="N">2</tspan><tspan  y="0" class="N">1
</tspan></text><text style="transform:matrix(2.107,0,0,2.107,1458.802,1044.966)"><tspan x="0" y="0" class="O">2
</tspan></text><text style="transform:matrix(3.592,0,0,3.592,2563.152,1742.031)"><tspan x="0" y="0" class="P">3
</tspan></text><text transform="translate(1396,907)"><tspan x="0" y="0" class="Q">9
</tspan></text><text transform="translate(1504,939)"><tspan x="0" y="0" class="Q">8
</tspan></text><text transform="translate(1515,1005)"><tspan x="0" y="0" class="R">7
</tspan></text><text transform="translate(1335,933)"><tspan x="0" y="0" class="S">4
</tspan></text><text transform="translate(1165,990)"><tspan x="0" y="0" class="T">1</tspan><tspan  y="0" class="T">1
</tspan></text><text style="transform:matrix(1.513,0,0,1.513,1200.843,1163.44)"><tspan x="0" y="0" class="U">5
</tspan></text><text transform="translate(1555,1287)"><tspan x="0" y="0" class="V">6
</tspan></text></svg>